<svg xmlns="http://www.w3.org/2000/svg" viewBox="0 0 254.904 146.825">
  <path fill-rule="evenodd" clip-rule="evenodd" fill="#000000" d="M217.539 52.841h.42l.329-.061.391-.09.329-.06.42-.12.33-.15.39-.12.39-.149.601-.33.6-.33.42-.39.27-.6-.09-.271-.061-.27v-.27l.061-.33-.061-.061-.06-.09-.06-.06h-.061l-.149-.72-.33-.271-.271-.329-.329-.33-.33-.33-.42-.27-.39-.271-.45-.149-.6-.061-.42.15-.449.06-.48.061-.39.06-.42.15-.33.18-.33.27-.27.33-.27.93v.09l-.061.061-.12.06-.09.15v.39l.09.12.061.09.06.12.061.149.27 1.26.33.45.42.539.39.48m-77.852 11.398H140.557l.539-.12.45-.09.54-.12.54-.12.539-.149.72-.271.75-.18.72-.27.75-.21.72-.271.659-.21.69-.27.6-.24.39-.09.39-.06.42-.12.39-.15.33-.119.42-.21.33-.271.27-.27.061-.12.12-.06.09-.09.12-.12-1.26-1.8-.33-.149-.359-.12-.33-.12-.271-.09-.33-.12h-.659l-.33.061-.33.06-.27.09H147.036l-.271.06-.27.061-.33.12-.27.149-.21.271-.24.18-.27.21-.359.21-.24.12-.271.21-.27.209-.27.181-.811.42-.659.39-.66.479-.6.45-.54.54-.539.539-.54.54-.51.6v.39h.06l.062.06zm91.196 10.616h.271l.27-.061.27-.09.271-.06h.18l.27-.061.271-.06h.27l.33-.15.27-.119.33-.061.27-.09.271-.06.27-.061.27-.06.181-.15.27-.06.27-.12.271-.15.27-.119.33-.15.271-.18.329-.15.33-.06.81-.39.81-.42.78-.391.81-.419.81-.391.78-.39.81-.42.81-.33h.54l.181-.06.21-.12.12-.09.149-.12.18-.06.21-.061 2.459-1.619.091-.27.119-.12.15-.15.18-.119.061-.271.21-.21.21-.18.27-.21.12-.33v-.75l.149-.329-.959-.78-.061-.21-.18-.149-.15-.12-.119-.21-3.089-.06-.12.06-.061.09-.09.12-.12.12-2.339 1.469-.06.091-.061.06-.09.12-.06.06-.39.15-.271.21-.27.18-.391.21-.419.27-.391.271-.39.27-.33.33-.359.27-.39.271-.48.239-.449.271-.061.09h-.09l-.06.06-.45.18-.479.21-.39.271-.33.33-.33.329-.359.33-.33.42-.33.39-2.52 2.55-.959.989-.061.54H230.224zM80.46 93.805l.72-.09.75-.06.72-.061.81-.12.72-.149.749-.12.72-.149.75-.181.45-.21.479-.27.39-.21.42-.27.33-.24.39-.27.33-.271.33-.27h.21l.12-.06.21-.091.149-.18.12-.149.21-.12.18-.21 1.14-1.319.42-.69 1.439-1.709.63-.87h.241l.419-.42.391-.329.39-.271.42-.329.39-.271.33-.39.27-.39.271-.48 1.739-1.319.81-1.739 1.709-2.879 1.14-1.47.21-.659.061-.061.149-.09.061-.06.119-.061.75-1.259.54-1.08.12-.989.93-1.949.06-.061.09-.06.06-.061.061-.149-.061-.061-.06-.06-.09-.09-.06-.061-.061-1.319-.21-.27-.18-.33-.09-.42-.061-.39v-.39l.061-.42v-.39l.09-.39.24-.271.149-.33.12-.27.21-.271v-.149l.06-.12v-.151l2.399-2.068v-.72l-.27-.21-.33-.12-.33-.061h-.72l-.42.12-.33.15-.329.12-.39.21-.48.18-.39.21-.479.21-.061.06v.21l-.06.12-4.198 2.729v.061l-.091.149-.06.061-.06.15-.99.509-.09.091-.06.06-.12.12-.061.06-.479.21-.39.27-.42.33-.27.33-.271.33-.33.42-.27.33-.33.27-.39.45-.479.42-.45.39-.33.479-.54.51-.479.54-.51.54-.54.6-.54.54-.539.539-.54.511-.51.6-.21.689-.33.45-.42.419-.239.391-.36.27-.39.33-.33.27-.33.33-.33.33-.27.329-.27.48-.271.45-.06.149-.06.12-.091.21-.06.12-.39.479-.93 1.14-2.22 5.278v.12l-.119.119-.061.09-.149.12-.12.66-.21.21-.12.27-.149.33-.061.27-.057.067-.091.06-.06.15v.39l-.06.42-.15.33-.18.329v.391l-.061.33-.149.42-.271.329-.18.93-.09.061-.06.06-.061.09-.06.12v.39l-.09.33v.27l.21.15.21.06.33.12.273.088zm75.781 8.787h.811l.779-.12.75-.15.72-.119.749-.21.72-.12.81-.21.811-.18.18-.15.33-.12.27-.149.149-.271 1.38-.539 3.209-1.92 1.079-1.079.061-.061.12-.06h.359l.45-.48.479-.449.45-.479.479-.45.45-.479.42-.54.449-.45.48-.539.39-.391.42-.359.33-.33.39-.33.33-.39.33-.33.27-.42.27-.449 2.129-2.069 3.359-6.088 1.589-2.579v-.15l.12-.18.15-.21.21-.149.33-.87v-.33l.119-.39.15-.33.18-.27v-.33l.061-.33.149-.329.27-.33v-.359l.061-.33.12-.33.21-.33.149-2.279v-.06h.12l.06-.12.061-.15v-1.05l-.061-.09v-.06l-.06-.12-.06-.06-.061-.21.061-.21.119-.12.061-.21-.061-.061v-.06l-.06-.09-.06-.06-.061-.181.061-.21.119-.21.061-.21V67.835l-.061-.061v-.06l-.06-.061-.06-.09-.21-2.459-.21-.21-.061-.239-.12-.36v-.239l-.419-.601-.66-.479-.72-1.14-.75-.06-.659-.271-.601-.27-.659-.33-.6-.21-.689-.12-.66.12-.72.33h-.54l-.479.149-.45.12-.42.15-.45.18-.39.09-.479.061h-.479l-.6.93-2.52 2.398-1.199 1.26-1.859 1.799-.81 1.08-.15.33-.18.21-.33.119-.27.271-2.159 2.129-.601 1.14-1.109.81v.061l-.09.06v.09l-.06.061-.78.659H160.648l-.69.48-.6.449-.6.54-.6.479-.6.51-.51.54-.54.54-.601.54-5.008 3.599-1.799 1.26-1.2.659-.21.27-.21.271-.239.27-.21.21-.271.27-.27.271-.33.24-.27.209h-.12l-.15.061h-.06l-.12.09-.09.061-.06.06-.061.12-.149.09-.061.06H144.689l-.929.87-1.08.81-1.14.659-1.199.601-1.26.6-1.319.449-1.35.48-1.409.39-1.109.27-1.14.271-1.14.33-1.14.27-1.14.21-1.109.12-1.141-.061-1.139-.21-.271-.18-.27-.21-.27-.12-.33-.21-.271-.149-.27-.18-.18-.271-.15-.27-.06-.061-.061-.06-.06-.09-.27-.779-.15-.811-.12-.81v-2.518l.061-.87.06-.869v-.15l.061-.12.09-.12.06-.149.93-1.8.21-.989.659-.87.601-1.889 1.589-2.579 1.41-1.739 2.729-2.939.27-.39.42-.27.391-.21.39-.12.479-.15.45-.21.479-.119.39-.271.48-.21.39-.12.479-.06.39-.15.391-.06.42-.061.39-.149.39-.18.359.06.33-.06h.33l.27-.15.33-.06.271-.12.27-.15.33-.06.39-.15.479-.119.45-.061.479-.149.45-.12.42-.15.39-.12.39-.209 1.29-.33 1.199-.39 1.199-.33 1.14-.42 1.11-.33 1.229-.39 1.2-.39 1.26-.48.39-.21.42-.18.39-.21.45-.12.359-.21.39-.27.33-.21.33-.271 2.129-2.788-.18-.21-.09-.33-.061-.33v-.39l-.929-1.409-.48-.391-.39-.479-.45-.39-.419-.42-.54-.39-.51-.33-.601-.33-.689-.21-.06-.06-.061-.061-.06-.149-.09-.061-.391-.119-.27-.15-.33-.21-.39-.18-1.02-.33-1.05-.27-1.079-.15-.99-.06-1.02.06-.989.21-.93.33-.87.479-.21.181-.18.209-.21.21-.12.12-.149.061h-.21l-.061.09-1.259 1.259-2.549 1.53-1.32 1.259-1.409 1.29-.12.33-.21.18-.27.27-.271.21-2.998 3.329-.33.54-.39.449-.48.42-.539.33-.511.33-.539.21-.54.27-.6.18-.87.15-.81.06-.87.061-.869.06-.84.09-.869-.09h-.81l-.87-.06-.87-.061-.81-.12-.869-.149-.78-.21-.81-.12-.81-.27-.779-.271-.75-.27-.33-.54-.12-.51-.149-.54v-.539l.06-.54v-.51l.09-.479v-.48l.061-.06.06-.061.06-.149.091-.061v-.06l-.091-.06-.06-.061-.06-.09-.061-.6.18-.27.211-.391v-.39l-.12-.42-.091-.06-.06-.12v-.09l-.6-.18-1.319-2.34-.271-.27-.329-.27-.36-.21-.39-.181-.33-.21-.39-.119-.42-.21-.39-.12-.75-.15h-1.529l-.66.15-.72.12-.689.119-.66.271-.659.27-.66.271-.6.329-.689.33-.6.36-.601.329-.659.33-.6.33-.6.27-.48.391-.39.39-.45.359-.539.271-.33.18-.36.21-.239.21-.271.18-.27.21-.27.21-.33.18-.271.21v.061l-.06.06-.09.15-.061.06-.12.12-.149.09-.18.12-.21.06h-.061l-.06.09-.149.061-.061.12-.15.149-.119.061h-.21l-.181.06-.09.15-.12.119-.149.15-.181.06v.061l-.06.06v.06l-.149.15h-.21l-.181.061-.209.06-.33.54-.391.39-.419.42-.45.39-.479.33-.45.33-.54.359-.539.39-.87 1.26-.33.15-.33.119-.33.271-.209.39-.271.6-.449.479-.54.33-.479.33-.45.93-.27.271-.42.149h-.929v1.2l-.061.391-.06.39-.15.42-.18.39-.27.39-.271.33-.27.42-.21.33-.163.383-.21.27-.061.21-.149.12-.12.21-1.409 2.669-.12.72-.09.09h-.061l-.12.061-.06.06-.15.66-.659.959-1.409 2.729-.811 2.069-.39.659-.39.87-.689 2.249-.6 1.14V92.008l.09.06.119.061.061.06.09 2.219.06.12.12.061.061.149.149.061.12 3.748.15.18.06.211.06.209.061.271.869.779 1.2.15 1.199.27 1.229.39 1.199.391 1.26.33 1.2.149 1.14-.149 1.139-.511.391-.09.329-.18.271-.27.27-.33 1.59-.54 1.409-1.47 1.739-1.259.54-.48.51-.449.54-.48.539-.479.601-.45.539-.479.54-.54.45-.6.06-.06.09-.12.061-.061v-.09l.6-.659.12-.061h.06l.15-.06.21-.09.06-.061.06-.06.061-.061v-.149l.54-.45.539-.54.54-.479.6-.51.601-.479.51-.54.539-.54.48-.6.449-.66.21-.209.15-.181.18-.21.27-.12 1.41-2.339.39-.42.33-.449.27-.48.27-.51.15-.42.18-.39.15-.33.12-.329.06-.15.09-.06.06-.061.061-.09.479-.84.12-1.079.75-1.26.39-.479 1.739-2.34.12-.27.21-.18.12-.271.21-.27.329-.39.33-.479.33-.33.479-.15H114.083l.81.09.78.061h.81l.81.06.78.06h.749l.81.091h.779l.75.06h2.34l.779-.06.27.12.15.27.061.27.209.271-.749.659-2.01 2.999-1.319 2.069-1.949 2.999-.78.869-.479 1.14-.33.99-.479 1.02v1.65l-.06.06-.12.15-.061.119v.15l-.09.18-.06.21-.21.21v3.929l.09.06h.06l.061.061.06.09.09.66.061.06h.06l.061.06.06.09V93.932l2.159 3.809 2.069 1.529.6.271 1.529.929.72.061.811.15.809.06.78.06h.81l.81-.119.72-.271.66-.39 4.828-1.89 2.849-1.049 1.89-1.29 1.379-.989 1.26-.87.09-.06v-.061l.061-.09v-.06l.659-.33.6-.39.54-.42.6-.45.54-.39.54-.36.66-.329.659-.18.479-.36.45-.33.479-.27.54-.24 4.738-3.539 3.269-2.278 2.999-2.729.66-.6.12-.149.21-.061.21-.06.18-.061 3.208-2.938 1.53-1.68.33-.12.359-.149.24-.181.21-.21.21-.209.18-.271.21-.18.27-.21.87-1.199 2.938-2.609 1.409-1.529.12-.061.21-.149.181-.061.27-.06.42-.33.449-.27.54-.21.54-.27.449-.181.54-.21.54-.06h.989l.48.12.39.21.42.27.449.72.061 5.218-.061.061-.06.06-.149.061-.061.149-.12 1.68-.33 1.589-1.739 3.809-.39.391-2.429 4.078v.06h-.12l-.06.061-.061.149-1.35 1.2-.06.06v.121l-.061.15-.09.06-.06.06-.12.15-.09.06-.12.21-.12.18-.21.21-.06.271-.479.33-.45.329-.479.33-.391.33-.419.33-.45.359-.42.39-.39.391-.54.329-.45.36-.539.33-.48.39-.449.39-.54.42-.6.33-.6.33-.33.12-.33.209-.271.21-.329.181-.36.149-.33.21-.39.12-.33.12-.479.21-.449.21-.48.12-.45.149-.479.06h-.479l-.45-.06-.39-.149-.479-.45-.15-4.139-.12-.149-.06-.061-.15-.21-.06-.18-1.409-.75-.45.271-.39.39-.36.42-.329.449-.391.42v.181l-.06.21-.09.21-.12.18-.479.869-.84 1.62.06 3.868 2.459 3.059 1.727.65zm66.785 1.289l.78-.09h.81l.75-.06.779-.061.75-.06.779-.149.75-.121.81-.209.449-.061.391-.06.479-.09.479-.061.391-.06.39-.06.42-.061.329-.15.54-.119.45-.15.479-.12.45-.149.42-.12.449-.21.48-.12.45-.21.27-.06.27-.15.27-.06.271-.061.27-.06.271-.061.27-.149.27-.06.66-.061.54-.15.6-.209.51-.181.479-.21.54-.209.54-.181.51-.21.42-.329 5.338-2.67.6-.659.45-1.2.06-1.619-.18-.18-.21-.09h-.271l-.329.09-.33.06-.27.061-.33.06h-.33l-.27.15-.271.06-.33.12-.27.09-.33.061-.33.06-.27.06-.33.09-.42.061-.329.06-.33.12-.39.09-.33.12-.33.15-.27.06-.33.06-.54.21-.54.12-.539.15-.45.18-.479.15-.48.18-.449.21-.391.27-.27.12-.27.149-.271.211-.21.239-.989.09-1.02.12-.989.15-.931.12-.989.21-1.02.119-.989.061-1.02.09-.78.18-.81.21-.81.061-.78.06h-1.53l-.81-.06-.749-.12-.45-.15-.48-.12H221.285l-.479-.06-.45-.09-.42-.12-.39-.21-.6-.99-.33-.149-.27-.12-.271-.12-.329-.209-.271-.15-.21-.18-.18-.271-.21-.33-.06-2.818.18-.33.149-.39.21-.42.24-.39.6-.811.689-.659.72-.6.75-.54.78-.51.81-.479.869-.54.87-.45.33-.21.329-.119.33-.21.33-.271.27-.21.33-.18.21-.271.27-.27.54-.149.12-.12.15-.15.12-.06.149-.06h.06l.061-.12.06-.091.15-.06.119-.06h.211l.119-.061.091-.09.119-.12.061-.06.06-.06 1.47-.69 16.344-7.587.33-.42.479-.27.54-.181.45-.27.359-.149.24-.181.359-.149.33-.181.27-.149.33-.12.271-.21.27-.12.39-.21.33-.21.33-.27.33-.18.27-.271.27-.27.271-.27.21-.271.06-.21.12-.12.15-.119.18-.15 1.679-2.609v-3.328l-.119-.21-.15-.181-.06-.209-.061-.271-.27-.18-.15-.36-.12-.329-.209-.271-.12-.449-.21-.33-.21-.33-.12-.27-.33-.42-.33-.39-.27-.391-.271-.42-.329-.119-.33-.15-.42-.12-.27-.21-.6-.54-.66-.329-.72-.181-.75-.09h-.779l-.75.15-.72.12-.75.21-.72.33-.689.329-.72.33-.66.33-.689.27-.659.36-.6.39-.601.33-.27.21-.33.18-.27.15-.33.119-.27.21-.33.12-.271.21-.33.21-1.919 1.379-4.349 3.81-.6.06-.06.09-.09.061-.061.06v.06l-.119.09-.15.061-.18.06-.21.12-.061.21-.149.15-.181.119-.209.12-2.55 2.22-.39.449-.39.48-.479.33-.45.39-.27.63-1.29 1.439-.449.479-.54.479-.54.39-.54.48-.51.45-.479.539-.45.54-.42.66-.39.449-.42.54-.449.54-.48.479-.449.45-.54.479-.473.549-.45.51-.42.6-.24.36-.27.239-.21.36-.21.24-.061.271-.119.21-.21.119-.21.211-.12.329-.27.21-.271.12-.21.21-.51.75-.21 1.049-1.409 2.729-.66 2.069-.06.09-.061.06v.12l.061.21v.061l-.061.06v.09l-.089.12.27.479-.27.51v.271l.089.06.061.09v.061l.06.06.271 1.8.21.27.119.33.061.42v.39l.21.21.12.27.09.33.06.33 1.47 2.399.54.449.51.42.6.33.6.33.689.329.601.271.72.21.659.18.75.21.66.12.749.149.72.061.72.06.75.09h1.407zm-220.297.12l.421-.12.389-.09h.391l.42-.06.39-.061.39-.06.33-.149.359-.181.66-.09.539-.12.601-.149.45-.18.539-.211.48-.21.449-.18.54-.21.81-.27.72-.33.659-.39.75-.33.66-.359.75-.33.719-.33.721-.27.42-.181.39-.209.39-.211.42-.27.21-.06h.18l.149-.061.33-.33.33-.149.45-.12.42-.12.45-.27.479-.27.48-.21.449-.271.541-.21.449-.239.54-.211.479-.149 1.14-.24 1.11-.209 1.139-.061 1.2-.09 1.14-.061 1.139.061 1.141.09 1.199.061 1.139.119 1.11.21 1.14.12 1.14.21 1.14.15 1.139.18 1.051.21 1.139.119.54.15.54.061.449.119.541.091.389.119.48.15.479.12.45.149 1.02.12.93.061.989.06.93.09.93.06.93.12 1.02.091.93.18.39.149.42.12.33.15.33.12.33.06.329.149.33.12.33.15.54-.09h.479l.54.09h.45l.539.12.48.06.449.15.479.119.45.271.54.12.479.149.51.06h1.08l.54-.119.6-.15.18-.06.21-.061.15-.149.06-.12 1.319-1.529.479-.54.12-1.47.09-.209.061-.121.06-.06.12-.149v-.93l-.93-1.41-.45-.39-.42-.33-.449-.329-.479-.42-.45-.181-.479-.149-.45-.06-.48.06h-.39l-.419.09-.391.12-.39.06-.87.15-.81.12-.81.149-.869.061h-3.27l-.869-.061h-.779l-.811-.09h-.81l-.779-.06H48.434l-.81.06H41.567l-1.14-.06-1.199-.12-1.141-.271-.869-.149-.779-.06-.87-.12-.869-.091-.81-.06-.87-.06-.87-.061-.779-.06-.869-.09H27.952l-.81.09-.869.06-.78.061-.87.119h-.539l-.54.091-.54.12-.51.149-.539.12-.601.21-.54.12-.539.149-.18.12-.211.12-.27.09-.33.06-.06.061-.09.06-.06.15-.061.06-.27.12-.21.15-.24.06-.271.06-.209.09-.27.061-.271.12-.271.149-.389.181-.33.149-.42.12-.391.149-.33.181-.389.149-.33.12-.359.15-.511.06-.54.12-.479.15-.39-.15-.061-.061v-.18l-.09-.149 2.43-3.809.239-.18.271-.271.27-.27.21-.33.271-.21.27-.27.33-.211.39-.119 5.817-5.458.33-.479.33-.391.39-.42.42-.39.271-.21.239-.27.271-.18.27-.21.21-.271.27-.21.181-.18.27-.21.27-.27.33-.271.27-.27.21-.24.93-.959.271-.45.33-.42.329-.39.42-.391.39-.329.391-.42.42-.33.449-.33.061-.06.09-.061.06-.089.06-.061.15-.12.12-.09.21-.06.27-.181.24-.21.27-.21.33-.18.27-.149.21-.21.21-.181.18-.21.42-.39.391-.42.33-.33.42-.27.389-.33.391-.329.33-.391.359-.479.39-.45.271-.54.449-.39.42-.42.391-.329.06-.061h.21l1.739-2.219.45-.66 3.479-3.118.06-.091V61.55l.06-.061.15-.06.061-.061.149-.09 1.38-1.979.539-.689.66-.6.6-.659.75-.601.72-.6.689-.6.72-.6.72-.6.48-.33.329-.33.33-.33.48-.27 1.259-1.35 1.35-1.199.45-.721.42-.479.449-.449.39-.54.48-.479.33-.45.329-.479.271-.391.21-.479.12-.45.21-.359.209-.39.271-.391.12-.329.12-.271.149-.27.27-.27 1.26-1.2v-.06l.061-.15v-.121l.539-.329.48-.33.39-.42.39-.45.42-.42.33-.449.39-.48.42-.39.06-.06v-.15l.061-.06.989-.99.15-.149.18-.061.21-.06.21-.09 1.26-1.59.149-.21.181-.18.21-.33.209-.27.45-.54.54-.479.54-.45.449-.42.54-.449.479-.54.45-.54.33-.659 3.089-2.729.06-.27.21-.21.12-.27.21-.33.18-.45.21-.36.27-.39.271-.39.27-.539.33-.48.39-.39.54-.39 1.68-2.13 1.049-1.289.66-.45.6-.6.54-.6.54-.75.6-.659.54-.66.6-.6.6-.601.93-.959.33-.93.42-.45.06-.21.061-.119.209-.15.181-.12.09-.75.119-.119.061-.15.15-.12.06-.21 2.459-3.718.06-.211.091-.119.12-.21.209-.15.12-.72v-.06h.061l.149-.15.061-.12.149-1.259.06-.15.061-.06.06-.15.061-.12V1.949l-.061-.09-.06-.06-.061-.061-.209-.81-.061-.12-.149-.09L92.455.6l-.06-.119-.6-.271-.6-.21h-1.2l-.6.21-.6.18-.54.33-.54.42-.72.87-1.409 2.459-.27.27-.271.27-.27.271-.24.27-.27.33-.27.33-.271.329-.21.48-.21.239-.18.271-.21.21-.12.27-.21.271-.12.27-.09.27-.12.271-.06.12-.15.119-.119.15-.21.12-.87 1.679-.06.33-.15.33-.18.27-.27.21-.271.271-.21.27-.27.33-.12.33-.27.329-.21.271-.24.27-.27.27-.271.271-.27.18-.271.271-.329.209-.15.271-.18.27-.15.33-.06.39-1.47 1.68-.869.989-1.14 1.08-.061.06-.06.061-.15.06h-.119l-1.41 1.68-2.069 2.009-.27.51-.33.48-.33.39-.33.33-.39.419-.42.33-.39.391-.33.42-.479.329-.39.33-.33.33-.33.33-.329.39-.36.359-.33.33-.33.33-.54.81-1.648 1.38-1.41 1.02-.06.659-.061.12-.09.15-.06.18-.06.15-.21.119-.12.15-.061.12-.09.21-3.988 3.269-.87 1.319-.929.87-1.14.749-.66 1.53-2.609 2.069-.479.72-.93.869-1.109 1.529-1.35 2.159-1.26 1.05-.15.42-.119.24-.27.27-.271.27-.6.93-1.2 1.29-.119.51-.27.42-.33.39-.42.33-.391.42-.479.329-.39.391-.33.479-2.279 2.579-1.649 1.469-1.679 2.16-.87 1.109-.93 1.079-1.739 1.529-1.26 1.529-.21.69-2.129 2.069-2.279 1.979-.12.33-.15.149-.27.21-.24.12-.869 1.199-.93.989-2.609 3.089-1.289 1.32-.119.27-.211.21-.33.12-.27.21-.12.27-.21.271-.27.18-.18.21-3.09 2.549-.93.989-.209.33-.24.21-.27.33-.21.39-.39.659-.42.69-.391.6-.479.6-.45.54-.479.51-.54.42-.51.39-2.759 2.729-.12.06-.06.149v.121l-.06.209-.271.21-.271.271-.209.239-.21.271-.181.27-.149.33-.18.36-.15.329-.271.271-.27.239-.33.21-.33.271-.27.27-.27.33-.12.329v.6l-.15.149-.06.061-.044.049v.6l.06.21.15.18.06.21.06.211.93.929 1.469.329zm146.166 33.827l.6-.209.6-.181.6-.27.54-.33.54-.359.45-.391.479-.329.479-.391 6.178-5.218.09-.21.12-.12.21-.06.18-.15 1.56-1.739.45-.72.479-.39 1.14-2.069.39-.93.12-.869v-.211l-.061-.061-.989.12-1.02.061-.989.149-.99.06-1.02.15-.989.06-.989.12-1.02.061-1.05.149-1.02.12-.99.15-1.079.119-.99.15-.989.12-1.08.149-.989.12.06 4.798.061.061.06.09.061.12.09.06-.271.42v.6l.061.061.06.12.061.09.09.06.12 6.268.479.6H148.895zm14.484 7.527l.06-.06.061-.061.09-.06.06-.149v-.061l-.06-.06-.09-.091-.061.091-.329.329v.061l.119.149.09.061.06-.149zm-14.935 1.411l.93.06.78-.12.81-.27.659-.33.689-.42.66-.39.6-.39.66-.33.27-.21.271-.271.27-.209.27-.271.271-.24.27-.209.24-.271.359-.21 2.249-2.339.33-.33.33-.33.42-.329.39-.33.39-.33.36-.33.33-.479.27-.45.45-.479.93-1.199 1.199-1.53.81-1.02 2.669-2.849.061-.149v-.181l.09-.149.659-.601.87-1.139 1.589-1.11 2.399-4.408h1.08l.989-.09h3.209l1.05-.06h2.219l1.05-.061h1.079l1.08-.06 1.05-.061 1.079-.09 1.05-.119 1.02-.15 1.05-.12.81-.12.75-.149.72-.061.749-.06h1.53l.719.12.75.149.93-.09.93-.06.87-.061.93-.06h5.398l.87-.09h.869l.93-.061h.87l.93-.12.869-.06.601.06.6.061.6.06h1.74l.6.061.54.09h.33l.27-.09.33-.061.27-.06h.271l.18-.061.27-.06.271-.09h2.818l.72.09.66.06.75.12.659.15h3.599l.93.06h1.8l.869-.06h.75l.72.06.749.061.72.06.66.15.75.119.659.211.601.209.419.061h.391l.39.06H238.364l.42-.06.39-.15 2.609-2.069v-1.799l-.149-.18-.12-.21-.15-.21-.06-.18-.54-.75-.72-.54-.87-.39-.93-.33-.929-.21h-2.01l-.93.21-1.26.33-1.289.119-1.26.091h-1.26l-1.259-.091h-1.229l-1.26.091-1.2.12-.539-.061-.51-.15-.54-.119-.48-.12-.539-.09-.51-.061h-.48l-.539.061-1.26.21-1.26.119-1.289.15-1.26.061h-1.26l-1.26.06h-2.488l-1.26-.06h-3.749l-1.199.06h-1.199l-1.26.09-1.2.12h-.329l-.33-.06h-1.201l-.329-.061h-.33l-.479.12h-.391l-.329.06-.271-.06-1.199-.12-1.2-.09h-2.339l-1.199.09h-1.14l-1.211.065-1.14.06-1.199.06H182.181l-1.14-.119-1.109-.061-1.14-.21-1.14-.27-.06-.39.06-.33.12-.36.27-.239.87-1.62 2.279-4.078 3.599-4.648.39-.479 1.199-1.59.96-1.469.45-.54.149-.12.181-.09.149-.12.18-.06 1.14-.87 1.26-2.609.479-.539.271-.45.33-.42.479-.39.33-.479.18-.391.09-.39.12-.33.33-.27.149-.33.18-.27.21-.33.12-.42.271-.27.209-.33.211-.33.18-.27.21-.33.21-.27.27-.271.24-.27.27-.45.36-.479.329-.45.271-.479.18-.479.21-.33.27-.39.271-.391.449-.479.48-.39.39-.479.27-.601.061-.06.149-.06.061-.091.06-.119v-.12l.061-.21.149-.15.12-.12.539-1.199 1.261-1.26 1.02-2.159.72-.6.149-.33.18-.27.271-.181.42-.149.6-.6 1.199-2.069 2.189-2.579.39-1.02.96-.93.06-.21.06-.12.12-.12.21-.149.15-.271.12-.27v-.27l.06-.271v-.329l-.06-.271v-.659l-.66-.66-.54-1.199-.27-.271-.33-.21-.39-.18-.42-.09-.45-.061h-.479l-.45.061-.479.149-.39.211-.271.119-.209.21-.271.18-.27.271-.18.27-.21.27-.21.271-.181.27-.21.271-.209.27-.181.18-.09.21-.12.12-.21.09-.06.12-.06 1.199v.061l-.061.09-.09.12-.061.149-.06.24-.06.27-.21.271-.12.27-1.08 2.069-1.679 1.47-2.189 3.479-.06.51-1.35 1.35v.21l-.061.06-.06.21-.81.66-.601 1.529-.06.271-.149.209-.12.12-.21.12-.061.54-.06.06-.061.09-.149.12-.06.06-1.47 2.489-.061.061-.09.06-.119.061-.061.09-.27.39-.271.39-.329.42-.21.39-.271.21-.18.18-.21.271-.12.27-.21.271-.149.27-.18.27-.15.33-.12.33-.149.27-.181.271-.149.27-.87.6-.06.271-.12.12-.15.149-.119.06-2.01 3.06v.06l-.06.15-.061.06-.09.12-1.529 1.35-.18.39-.36.33-.39.21-.39.33-2.01 2.879-1.589 1.799-.54.66-1.079 1.199H176.777l-.12.06-.69 1.2-1.252 1.398-.061.061v.149l-.06.06-.09.15-1.109 1.05-1.8 2.009-.09.66-.72.989-.06.15-.091.06-.06.061-.06.09-.99.659-.09.061-.06.149v.061l-.061.119-.869.48-.87.449-.93.42-.93.391-.93.39-.959.42-.93.39-.87.39-.779-.06H158.966l-.81.06h-.72l-.75.09h-.78l-.149-.09-.06-.06-.061-.061-.149-.12h-.12l-.061.12-.06.061-.09.149-.78.271-.959.18-.84.06-1.02.091h-.93l-.99-.091h-.93l-.959.091h-.99l-.329.06-.33.06-.42.061-.33.09-.39.12-.54.21-.54.06-.6.061-.51-.061h-.54l-.539.061-.54.06-.54.21-1.05.06h-1.079l-.989.061H131.283l-1.08.09h-1.978l-1.02.06-1.05.061-1.02.06-.99.09-1.26.061-1.289.119-1.26.21-1.259.21-1.26.181-1.29.149-1.259.12-1.2.149-.54.061-.54-.061h-.509l-.54-.09-.54-.06h-.479l-.51.06-.54.21-1.199.15-1.2.06-1.199.061-1.199.06-1.2.15-1.14.119-1.199.21-1.079.33-.54.21-.51.061h-.54l-.54-.061-.54-.09-.6-.06-.539-.061h-.511l-.959.271-.84.18-.96.21-.93.149-.869.061-.93.06-.93.061-.87.06h-.93l-.869.09-.93.061h-.87l-.869.12-.93.09-.87.119-.869.21h-2.06l-.66.061-.6.12-.659.09-.69.12-.659.149-.061.061-.06.06-.09.12-.061.09h-1.319l-1.289.06-1.32.12-1.35.09-1.259.12-1.32.12-1.349.149-1.26.12-1.35.21-1.319.12-1.26.15-1.35.21-1.319.119-1.35.061-1.319.149-1.35.061-.54.06H53.377l-.54-.06H51.758l-.54.06-.51.21-.93.061h-.96l-.93.06-.93.09-.93.061h-.93l-.869.06h-.93l-1.289.21-1.199.06-1.26.061h-1.2l-1.199.06-1.2.15-1.139.27-1.051.39h-.479l-.329.12-.391.15-.479.21-.479.51-.84 1.889v1.11l.18.479.33.33.33.329.359.271.391.27.329.21.39.27.42.181.54.21.51.06h.54l.539-.12.541-.06.539-.149.51-.121.54-.089.39-.181.48-.149.479-.12.391-.15.479-.119.45-.061.391-.06.419-.091.39-.119.33-.15.42-.06.39-.061.33-.06.33-.061.329-.089.271-.061.87-.33.869-.149.869-.12.871-.061h.869l.869-.06.78-.15.869-.27 1.14-.06 1.08-.12 1.14-.21 1.109-.15 1.14-.12 1.079-.119 1.14-.15h1.05l1.079-.27 1.05-.12 1.02-.15 1.05-.119 1.08-.061 1.079-.15 1.05-.119 1.079-.271.66-.06.72-.09h.689l.721-.061.659-.06.689-.061.72-.09.66-.06.689-.12.72-.06.66-.09.689-.061h.72l.66-.12.6-.149.689-.181h.72l.72-.09.75-.06.72-.06h.75l.72-.061.689-.09.72-.061.75-.06.659-.06.72-.061h.69l.72-.09h3.208l1.199-.06 1.14-.061 1.11-.06 1.14-.09 1.199-.12 1.14-.06 1.199-.061.81.061H105.412l.779-.061.81-.09h.75l.779-.06.81-.061.81-.06h.78l.869-.09.81-.061h1.08l1.109-.06 1.08-.061 1.14-.149 1.05-.12 1.139-.15 1.14-.06 1.14-.06 1.26-.061 1.35-.09 1.319-.06 1.35-.12 1.319-.06 1.35-.15 1.38-.061 1.35-.149 1.319-.06 1.349-.061h3.928l1.26.12 1.29.09 1.199.18.12 2.399-.061.15-.149.06-.061.149-.06.12-.12 5.068v.06l-.149.091-.061.12-.15.119-.119 3.749v.12l-.15.09-.06.12-.12.149v3.329l.449 1.739.211.18.149.33.06.359.061.33.81 1.32.18.06.15.09.06.12.12.149 1.079.511 3.745.812z"/>
</svg>
