<svg xmlns="http://www.w3.org/2000/svg" viewBox="0 0 100 125"><path d="M10.296 30.271c7.847 4.829 15.314 9.552 22.909 14.061 7.259 4.309 12.291 11.364 19.604 16.513 13.578-10.479 24.273-23.452 38.547-33.314l3.636 1.867c.102 3.201-.87 5.349-3.104 6.766-11.214 7.116-19.415 17.644-29.49 26.054-1.257 1.049-1.852 2.879-2.786 4.326-1.302 2.016-2.636 4.012-3.674 5.589-4.137.899-6.971-.035-9.477-2.454C34.738 58.363 21.742 48.586 8.845 38.691c-1.386-1.063-2.702-2.217-3.823-3.141-.26-3.691 1.752-4.756 5.274-5.279z"/></svg>
