<svg xmlns="http://www.w3.org/2000/svg" viewBox="0 0 100 125"><path d="M81.605 45.715c-1.047 2.125-1.562 4.352-2.927 5.748-8.426 8.62-17.048 17.047-25.594 25.55-4.884 4.859-9.6 9.9-14.662 14.565-4.64 4.275-9.841 4.307-15.463 1.408l.515-5.876c14.802-11.219 29.28-22.79 42.241-36.226-1.872-5.207-5.747-8.179-9.332-11.115-9.368-7.671-19.06-14.945-28.562-22.456-3.689-2.916-7.562-5.756-9.426-11.569 2.437-.313 4.388-.951 6.205-.68 1.614.241 3.207 1.314 4.588 2.321 11.529 8.41 23.422 16.397 34.295 25.59 4.35 3.677 8.656 6.89 13.663 9.402 1.482.746 2.706 2.004 4.459 3.338z"/></svg>
