<svg xmlns="http://www.w3.org/2000/svg" viewBox="0 0 135 40" style="enable-background:new 0 0 135 40" xml:space="preserve"><style>.st2,.st7{fill:#fff}.st7{stroke:#fff;stroke-width:.2;stroke-miterlimit:10}</style><g id="artwork"><path style="fill:#fff;fill-opacity:0" d="M-10-10h155v60H-10z"/><path d="M130 40H5c-2.75 0-5-2.25-5-5V5c0-2.75 2.25-5 5-5h125c2.75 0 5 2.25 5 5v30c0 2.75-2.25 5-5 5z"/><path d="M130 .8a4.2 4.2 0 0 1 4.2 4.2v30a4.2 4.2 0 0 1-4.2 4.2H5A4.2 4.2 0 0 1 .8 35V5A4.2 4.2 0 0 1 5 .8h125m0-.8H5C2.25 0 0 2.25 0 5v30c0 2.75 2.25 5 5 5h125c2.75 0 5-2.25 5-5V5c0-2.75-2.25-5-5-5z" style="fill:#a6a6a6"/><path class="st2" d="M68.14 21.75c-2.35 0-4.27 1.79-4.27 4.25 0 2.45 1.92 4.25 4.27 4.25 2.35 0 4.27-1.8 4.27-4.25 0-2.46-1.92-4.25-4.27-4.25zm0 6.83c-1.29 0-2.4-1.06-2.4-2.58 0-1.53 1.11-2.58 2.4-2.58 1.29 0 2.4 1.05 2.4 2.58 0 1.52-1.12 2.58-2.4 2.58zm-9.32-6.83c-2.35 0-4.27 1.79-4.27 4.25 0 2.45 1.92 4.25 4.27 4.25 2.35 0 4.27-1.8 4.27-4.25 0-2.46-1.92-4.25-4.27-4.25zm0 6.83c-1.29 0-2.4-1.06-2.4-2.58 0-1.53 1.11-2.58 2.4-2.58 1.29 0 2.4 1.05 2.4 2.58 0 1.52-1.11 2.58-2.4 2.58zm-11.08-5.52v1.8h4.32c-.13 1.01-.47 1.76-.98 2.27-.63.63-1.61 1.32-3.33 1.32-2.66 0-4.74-2.14-4.74-4.8s2.08-4.8 4.74-4.8c1.43 0 2.48.56 3.25 1.29l1.27-1.27c-1.08-1.03-2.51-1.82-4.53-1.82-3.64 0-6.7 2.96-6.7 6.61 0 3.64 3.06 6.61 6.7 6.61 1.97 0 3.45-.64 4.61-1.85 1.19-1.19 1.56-2.87 1.56-4.22 0-.42-.03-.81-.1-1.13h-6.07zm45.31 1.4c-.35-.95-1.43-2.71-3.64-2.71-2.19 0-4.01 1.72-4.01 4.25 0 2.38 1.8 4.25 4.22 4.25 1.95 0 3.08-1.19 3.54-1.88l-1.45-.97c-.48.71-1.14 1.18-2.09 1.18s-1.63-.44-2.06-1.29l5.69-2.35-.2-.48zm-5.8 1.42c-.05-1.64 1.27-2.48 2.22-2.48.74 0 1.37.37 1.58.9l-3.8 1.58zM82.63 30h1.87V17.5h-1.87V30zm-3.06-7.3h-.07c-.42-.5-1.22-.95-2.24-.95-2.13 0-4.08 1.87-4.08 4.27 0 2.38 1.95 4.24 4.08 4.24 1.01 0 1.82-.45 2.24-.97h.06v.61c0 1.63-.87 2.5-2.27 2.5-1.14 0-1.85-.82-2.14-1.51l-1.63.68c.47 1.13 1.71 2.51 3.77 2.51 2.19 0 4.04-1.29 4.04-4.43v-7.64h-1.77v.69zm-2.15 5.88c-1.29 0-2.37-1.08-2.37-2.56 0-1.5 1.08-2.59 2.37-2.59 1.27 0 2.27 1.1 2.27 2.59.01 1.48-.99 2.56-2.27 2.56zm24.39-11.08h-4.47V30h1.87v-4.74h2.61c2.07 0 4.1-1.5 4.1-3.88s-2.05-3.88-4.11-3.88zm.04 6.02H99.2v-4.29h2.65c1.4 0 2.19 1.16 2.19 2.14 0 .98-.79 2.15-2.19 2.15zm11.54-1.79c-1.35 0-2.75.6-3.33 1.91l1.66.69c.35-.69 1.01-.92 1.7-.92.97 0 1.95.58 1.96 1.61v.13c-.34-.19-1.06-.48-1.95-.48-1.79 0-3.6.98-3.6 2.81 0 1.67 1.46 2.75 3.1 2.75 1.25 0 1.95-.56 2.38-1.22h.06v.97h1.8v-4.79c.01-2.22-1.65-3.46-3.78-3.46zm-.23 6.85c-.61 0-1.46-.31-1.46-1.06 0-.96 1.06-1.33 1.98-1.33.82 0 1.21.18 1.7.42a2.257 2.257 0 0 1-2.22 1.97zM123.74 22l-2.14 5.42h-.06L119.32 22h-2.01l3.33 7.58-1.9 4.21h1.95L125.82 22h-2.08zm-16.8 8h1.87V17.5h-1.87V30zM10.44 7.54c-.29.31-.46.79-.46 1.4v22.12c0 .62.17 1.1.46 1.4l.07.07L22.9 20.15v-.3L10.51 7.47l-.07.07zM27.03 24.28l-4.13-4.13v-.3l4.13-4.13.09.05 4.89 2.78c1.4.79 1.4 2.09 0 2.89l-4.89 2.78-.09.06z"/><path class="st2" d="M27.12 24.23 22.9 20 10.44 32.46c.46.49 1.22.55 2.08.06l14.6-8.29M27.12 15.78l-14.61-8.3c-.86-.49-1.62-.43-2.08.06L22.9 20l4.22-4.22z"/><path d="m27.03 24.13-14.52 8.25c-.81.46-1.54.43-2 .01l-.07.07.07.07c.47.42 1.19.45 2-.01l14.61-8.3-.09-.09z" style="opacity:.2;fill:#fff;enable-background:new"/><path d="M10.44 32.32c-.29-.31-.46-.79-.46-1.4v.15c0 .62.17 1.1.46 1.4l.07-.07-.07-.08z" style="opacity:.12;enable-background:new"/><path d="m32.01 21.3-4.99 2.83.09.09L32 21.44c.7-.4 1.05-.92 1.05-1.44-.05.47-.4.94-1.04 1.3z" style="opacity:.12;fill:#fff;enable-background:new"/><path d="m12.51 7.62 19.5 11.08c.63.36.99.82 1.05 1.3 0-.52-.35-1.05-1.05-1.44L12.51 7.48c-1.4-.79-2.54-.13-2.54 1.47v.15c0-1.61 1.15-2.27 2.54-1.48z" style="opacity:.25;fill:#fff;enable-background:new"/><g><path class="st7" d="M46.22 12.22c-.59.61-1.32.91-2.2.91-.88 0-1.61-.3-2.2-.91-.59-.61-.88-1.35-.88-2.22s.29-1.62.88-2.22c.59-.61 1.32-.91 2.2-.91.87 0 1.6.3 2.2.91.59.61.88 1.35.88 2.22 0 .88-.29 1.62-.88 2.22zm-3.83-.5c.44.45.99.67 1.63.67.64 0 1.19-.22 1.63-.67.44-.45.67-1.02.67-1.72s-.22-1.27-.67-1.72a2.22 2.22 0 0 0-1.63-.68c-.64 0-1.19.22-1.63.67-.45.46-.67 1.03-.67 1.73s.22 1.27.67 1.72zM48.18 13V7h.94l2.92 4.67h.03l-.03-1.16V7h.77v6h-.8l-3.05-4.89h-.03l.03 1.16V13h-.78zM56.23 13h-.77V7.74h-1.68V7h4.12v.74h-1.68V13zM58.88 13V7h1.83c.92 0 1.66.28 2.21.83.55.56.83 1.28.83 2.17 0 .89-.28 1.61-.83 2.17-.55.55-1.29.83-2.21.83h-1.83zm.77-.74h1.06c.69 0 1.24-.2 1.65-.6.41-.4.61-.95.61-1.67 0-.71-.2-1.26-.61-1.66-.41-.4-.95-.6-1.65-.6h-1.06v4.53zM68.34 7.74H65.6v1.9h2.46v.72H65.6v1.9h2.73V13h-3.5V7h3.5v.74zM73.99 7v.03L71.76 9.6l2.38 3.36V13h-.95l-1.95-2.8-.92 1.06V13h-.77V7h.77v3.09h.03L72.99 7h1zM76.93 13V7h.77v2.57h3V7h.77v6h-.77v-2.71h-3V13h-.77zM86.35 7.74h-2.73v1.9h2.46v.72h-2.46v1.9h2.73V13h-3.5V7h3.5v.74zM89.61 13h-.77V7.74h-1.68V7h4.12v.74H89.6V13zM99.09 12.22c-.59.61-1.32.91-2.2.91-.88 0-1.61-.3-2.2-.91-.59-.6-.89-1.34-.89-2.22s.29-1.62.88-2.22c.59-.61 1.32-.91 2.2-.91.87 0 1.6.3 2.2.91.59.61.89 1.35.89 2.22 0 .88-.29 1.62-.88 2.22zm-3.83-.5c.44.45.99.67 1.63.67s1.19-.22 1.63-.67c.44-.45.67-1.02.67-1.72s-.22-1.27-.67-1.72c-.44-.45-.99-.67-1.63-.67s-1.19.22-1.63.67c-.45.45-.67 1.02-.67 1.72s.22 1.27.67 1.72zM101.82 13h-.77V7h2.04c.51 0 .95.17 1.32.51.37.34.56.76.56 1.28 0 .51-.19.94-.56 1.28-.37.34-.81.51-1.32.51h-1.27V13zm0-3.17h1.29c.32 0 .58-.11.78-.33.2-.22.29-.46.29-.72s-.1-.5-.29-.72c-.2-.22-.46-.33-.78-.33h-1.29v2.1z"/></g></g></svg>