<svg id="NL_Download_on_the" xmlns="http://www.w3.org/2000/svg" viewBox="0 0 133.1 38.2"><style>.st0{fill:#372922;} .st1{fill:#FFFFFF;}</style><path class="st0" d="M133.1 34.4c0 2.1-1.7 3.8-3.8 3.8H3.8c-2.1 0-3.8-1.7-3.8-3.8V3.8C0 1.7 1.7 0 3.8 0h125.5c2.1 0 3.8 1.7 3.8 3.8v30.6z"/><path class="st1" d="M29.2 18.9c0-3.2 2.6-4.8 2.8-4.9-1.5-2.2-3.9-2.5-4.7-2.5-2-.2-3.9 1.2-4.9 1.2-1 0-2.6-1.2-4.2-1.1-2.1 0-4.1 1.3-5.2 3.2-2.3 3.9-.6 9.7 1.6 12.9 1.1 1.6 2.4 3.3 4 3.2 1.6-.1 2.2-1 4.2-1 1.9 0 2.5 1 4.2 1 1.7 0 2.8-1.6 3.9-3.1 1.3-1.8 1.8-3.5 1.8-3.6-.1-.2-3.4-1.4-3.5-5.3zM26 9.4c.9-1.1 1.5-2.6 1.3-4.1-1.3.1-2.8.9-3.8 1.9-.8.9-1.5 2.5-1.3 3.9 1.5.2 2.9-.6 3.8-1.7zM52.8 30.6h-2.3l-1.2-3.9H45l-1.2 3.9h-2.2l4.3-13.3h2.6l4.3 13.3zm-3.9-5.5l-1.1-3.5c-.1-.4-.3-1.2-.7-2.5-.1.6-.3 1.4-.6 2.5l-1.1 3.5h3.5zM63.8 25.7c0 1.6-.4 2.9-1.3 3.9-.8.8-1.8 1.3-2.9 1.3-1.3 0-2.2-.5-2.7-1.4v5.1h-2.1V24.2c0-1 0-2.1-.1-3.2h1.9l.1 1.5c.7-1.1 1.8-1.7 3.2-1.7 1.1 0 2.1.4 2.8 1.3.8 1 1.1 2.1 1.1 3.6zm-2.1.1c0-.9-.2-1.7-.6-2.3-.5-.6-1.1-.9-1.9-.9-.5 0-1 .2-1.4.5-.4.4-.7.8-.8 1.4-.1.3-.1.5-.1.6v1.6c0 .7.2 1.3.6 1.8s1 .7 1.7.7c.8 0 1.4-.3 1.9-.9.3-.7.6-1.5.6-2.5zM74.9 25.7c0 1.6-.4 2.9-1.3 3.9-.8.8-1.8 1.3-2.9 1.3-1.3 0-2.2-.5-2.7-1.4v5.1h-2.1V24.2c0-1 0-2.1-.1-3.2h1.9l.1 1.5c.7-1.1 1.8-1.7 3.2-1.7 1.1 0 2.1.4 2.8 1.3.7 1 1.1 2.1 1.1 3.6zm-2.2.1c0-.9-.2-1.7-.6-2.3-.5-.6-1.1-.9-1.9-.9-.5 0-1 .2-1.4.5-.4.4-.7.8-.8 1.4-.1.3-.1.5-.1.6v1.6c0 .7.2 1.3.6 1.8.4.5 1 .7 1.7.7.8 0 1.4-.3 1.9-.9.4-.7.6-1.5.6-2.5zM87.2 26.9c0 1.1-.4 2.1-1.2 2.8-.9.8-2.1 1.2-3.6 1.2-1.4 0-2.6-.3-3.4-.8l.5-1.8c.9.6 2 .9 3.1.9.8 0 1.4-.2 1.9-.5.4-.4.7-.8.7-1.5 0-.5-.2-1-.6-1.4-.4-.4-1-.7-1.8-1-2.3-.9-3.5-2.1-3.5-3.8 0-1.1.4-2 1.2-2.7.8-.7 1.9-1 3.3-1 1.2 0 2.2.2 3 .6l-.5 1.7c-.8-.4-1.6-.6-2.5-.6-.8 0-1.3.2-1.8.6-.4.3-.5.7-.5 1.2s.2 1 .6 1.3c.4.3 1 .7 1.9 1 1.1.5 2 1 2.5 1.6.5.5.7 1.3.7 2.2zM94.3 22.6H92v4.7c0 1.2.4 1.8 1.2 1.8.4 0 .7 0 .9-.1l.1 1.6c-.4.2-1 .2-1.7.2-.8 0-1.5-.3-2-.8s-.7-1.4-.7-2.6v-4.8h-1.4V21h1.4v-1.8l2.1-.6V21h2.3c.1 0 .1 1.6.1 1.6zM104.9 25.7c0 1.5-.4 2.7-1.3 3.6-.9 1-2.1 1.5-3.5 1.5s-2.5-.5-3.4-1.4-1.3-2.1-1.3-3.5c0-1.5.4-2.7 1.3-3.7.9-.9 2-1.4 3.5-1.4 1.4 0 2.5.5 3.4 1.4.9.9 1.3 2.1 1.3 3.5zm-2.2.1c0-.9-.2-1.6-.6-2.3-.4-.8-1.1-1.1-1.9-1.1-.9 0-1.5.4-2 1.1-.4.6-.6 1.4-.6 2.3 0 .9.2 1.6.6 2.3.5.8 1.1 1.1 1.9 1.1.8 0 1.5-.4 1.9-1.2.5-.5.7-1.3.7-2.2zM111.8 22.9c-.2 0-.4-.1-.7-.1-.8 0-1.3.3-1.7.9-.4.5-.5 1.1-.5 1.9v5h-2.1V24c0-1.1 0-2.1-.1-3h1.9l.1 1.8h.1c.2-.6.6-1.1 1.1-1.5.5-.3 1-.5 1.5-.5h.5c-.1.1-.1 2.1-.1 2.1zM121.3 25.4c0 .4 0 .7-.1 1h-6.4c0 .9.3 1.7.9 2.2.5.4 1.2.7 2.1.7.9 0 1.8-.2 2.6-.5l.3 1.5c-.9.4-2 .6-3.2.6-1.5 0-2.7-.4-3.5-1.3-.8-.9-1.3-2-1.3-3.5 0-1.4.4-2.7 1.2-3.6.8-1 1.9-1.5 3.4-1.5 1.4 0 2.4.5 3.1 1.5.7.7.9 1.7.9 2.9zm-2-.6c0-.6-.1-1.2-.4-1.6-.4-.6-.9-.9-1.7-.9-.7 0-1.3.3-1.7.9-.4.5-.6 1-.6 1.7l4.4-.1z"/><g><path class="st1" d="M48.4 9c0 1.2-.4 2.1-1.1 2.7-.7.6-1.6.9-2.9.9-.6 0-1.1 0-1.6-.1V5.9c.6-.1 1.2-.1 1.9-.1 1.2 0 2.1.3 2.7.8.7.5 1 1.3 1 2.4zm-1.1 0c0-.8-.2-1.4-.6-1.8-.4-.4-1-.6-1.8-.6-.3 0-.6 0-.9.1v5h.7c.8 0 1.5-.2 1.9-.7s.7-1.1.7-2zM54.5 10.1c0 .7-.2 1.4-.6 1.8-.4.5-1 .7-1.8.7-.7 0-1.3-.2-1.7-.7-.4-.5-.6-1.1-.6-1.8 0-.8.2-1.4.7-1.9.4-.5 1-.7 1.8-.7.7 0 1.3.2 1.7.7.3.6.5 1.1.5 1.9zm-1.2 0c0-.4-.1-.8-.3-1.2-.2-.4-.5-.6-1-.6-.4 0-.8.2-1 .6-.2.3-.3.7-.3 1.2 0 .4.1.8.3 1.2.2.4.6.6 1 .6s.7-.2 1-.6c.2-.4.3-.7.3-1.2zM62.6 7.7L61 12.5h-1l-.6-2.1c-.2-.5-.3-1-.4-1.6-.1.5-.2 1.1-.4 1.6l-.6 2.1h-1l-1.4-4.9h1.1l.5 2.3c.1.5.2 1.1.3 1.6.1-.4.2-.9.4-1.6l.7-2.3h.9l.7 2.3c.2.6.3 1.1.4 1.6.1-.5.2-1 .3-1.6l.6-2.3c0 .1 1.1.1 1.1.1zM68.2 12.5h-1.1V9.8c0-.9-.3-1.3-1-1.3-.3 0-.6.1-.8.4-.2.2-.3.4-.3.8v2.9h-1.1V9.1 7.7h.9l.1.8c.1-.2.3-.4.6-.6.3-.2.6-.3 1-.3.5 0 .8.1 1.1.4.4.4.6.9.6 1.6v2.9zM71.1 12.5H70v-7h1.1v7zM77.5 10.1c0 .7-.2 1.4-.6 1.8-.4.5-1 .7-1.8.7-.7 0-1.3-.2-1.7-.7-.4-.5-.6-1.1-.6-1.8 0-.8.2-1.4.7-1.9.4-.5 1-.7 1.8-.7.7 0 1.3.2 1.7.7.3.6.5 1.1.5 1.9zm-1.1 0c0-.4-.1-.8-.3-1.2-.2-.4-.5-.6-1-.6-.4 0-.8.2-1 .6-.2.3-.3.7-.3 1.2 0 .4.1.8.3 1.2.2.4.6.6 1 .6s.7-.2 1-.6c.2-.4.3-.7.3-1.2zM82.7 12.5h-1V12c-.3.4-.8.7-1.4.7-.5 0-.8-.1-1.1-.4-.3-.3-.4-.6-.4-1 0-.6.2-1 .7-1.4.5-.3 1.2-.5 2.1-.5v-.1c0-.6-.3-1-1-1-.5 0-.9.1-1.3.4l-.2-.7c.5-.3 1-.4 1.7-.4 1.3 0 1.9.7 1.9 2V12.5zm-1.1-1.6v-.8c-1.2 0-1.8.3-1.8 1 0 .3.1.4.2.6.1.1.3.2.5.2s.5-.1.7-.2c.2-.1.3-.3.4-.6v-.2zM88.9 12.5h-1v-.8c-.3.6-.8.9-1.6.9-.6 0-1.1-.2-1.5-.7-.4-.5-.6-1.1-.6-1.8 0-.8.2-1.4.6-1.9.4-.5.9-.7 1.5-.7.7 0 1.1.2 1.4.7V5.5h1.1v5.8c0 .4 0 .8.1 1.2zm-1.2-2v-.8-.3c-.1-.3-.2-.5-.4-.7-.2-.2-.4-.3-.7-.3-.4 0-.7.2-.9.5-.2.3-.3.7-.3 1.2s.1.9.3 1.2c.2.3.5.5.9.5s.6-.1.9-.4c.1-.3.2-.6.2-.9zM94.9 6.2c0 .2-.1.3-.2.5-.1.1-.3.2-.5.2s-.3-.1-.5-.2c-.1-.1-.2-.3-.2-.5s.1-.3.2-.5.3-.2.5-.2.3.1.5.2c.1.2.2.3.2.5zm-.2 6.3h-1.1V7.7h1.1v4.8zM100.9 12.5h-1.1V9.8c0-.9-.3-1.3-1-1.3-.3 0-.6.1-.8.4-.2.2-.3.5-.3.8v2.9h-1.1V9.1 7.7h1v.8c.2-.3.4-.5.6-.6.3-.2.6-.3 1-.3.5 0 .8.1 1.1.4.4.4.6.9.6 1.6v2.9zM110 12.5h-1l-.1-.8c-.3.6-.8.9-1.6.9-.6 0-1.1-.2-1.5-.7-.4-.5-.6-1.1-.6-1.8 0-.8.2-1.4.6-1.9.4-.5.9-.7 1.5-.7.7 0 1.1.2 1.4.7V5.5h1.1v5.8c.2.4.2.8.2 1.2zm-1.1-2v-.8-.3c-.1-.3-.2-.5-.4-.7s-.4-.3-.7-.3c-.4 0-.7.2-.9.5-.2.3-.3.7-.3 1.2s.1.9.3 1.2c.2.3.5.5.9.5s.6-.1.9-.4c.1-.3.2-.6.2-.9zM115.9 9.9v.5h-3.2c0 .5.2.8.5 1.1.3.2.6.3 1.1.3.5 0 .9-.1 1.3-.2l.2.8c-.5.2-1 .3-1.6.3-.8 0-1.3-.2-1.8-.7-.4-.4-.6-1-.6-1.8 0-.7.2-1.3.6-1.8.4-.5 1-.8 1.7-.8s1.2.3 1.6.8c.1.4.2.9.2 1.5zm-1-.3c0-.3-.1-.6-.2-.8-.2-.3-.5-.5-.9-.5s-.6.1-.9.4c-.2.2-.3.5-.3.8h2.3z"/></g></svg>