<?xml version="1.0" encoding="utf-8"?>
<!-- Generator: Adobe Illustrator 16.0.0, SVG Export Plug-In . SVG Version: 6.00 Build 0)  -->
<!DOCTYPE svg PUBLIC "-//W3C//DTD SVG 1.1//EN" "http://www.w3.org/Graphics/SVG/1.1/DTD/svg11.dtd">
<svg version="1.1" xmlns="http://www.w3.org/2000/svg" xmlns:xlink="http://www.w3.org/1999/xlink" x="0px" y="0px"
	 width="254.904px" height="146.825px" viewBox="0 0 254.904 146.825" enable-background="new 0 0 254.904 146.825"
	 xml:space="preserve">
<g id="Layer_1">
	<path fill-rule="evenodd" clip-rule="evenodd" fill="#1F1A17" d="M217.539,52.841h0.42l0.329-0.061l0.391-0.09l0.329-0.06
		l0.42-0.12l0.33-0.15l0.39-0.12l0.39-0.149l0.601-0.33l0.6-0.33l0.42-0.39l0.27-0.6l-0.09-0.271l-0.061-0.27v-0.27l0.061-0.33
		l-0.061-0.061l-0.06-0.09l-0.06-0.06h-0.061l-0.149-0.72l-0.33-0.271l-0.271-0.329l-0.329-0.33l-0.33-0.33l-0.42-0.27l-0.39-0.271
		l-0.45-0.149l-0.6-0.061l-0.42,0.15l-0.449,0.06l-0.48,0.061l-0.39,0.06l-0.42,0.15l-0.33,0.18l-0.33,0.27l-0.27,0.33l-0.27,0.93
		v0.09l-0.061,0.061l-0.12,0.06l-0.09,0.15v0.12v0.06v0.06v0.15l0.09,0.12l0.061,0.09l0.06,0.12l0.061,0.149l0.27,1.26l0.33,0.45
		l0.42,0.539l0.39,0.48 M139.028,63.906h0.539h0.45h0.54l0.539-0.12l0.45-0.09l0.54-0.12l0.54-0.12l0.539-0.149l0.72-0.271
		l0.75-0.18l0.72-0.27l0.75-0.21l0.72-0.271l0.659-0.21l0.69-0.27l0.6-0.24l0.39-0.09l0.39-0.06l0.42-0.12l0.39-0.15l0.33-0.119
		l0.42-0.21l0.33-0.271l0.27-0.27l0.061-0.12l0.12-0.06l0.09-0.09l0.12-0.12l-1.26-1.8l-0.33-0.149l-0.359-0.12l-0.33-0.12
		l-0.271-0.09l-0.33-0.12h-0.329h-0.33l-0.33,0.061l-0.33,0.06l-0.27,0.09h-0.33h-0.27l-0.271,0.06l-0.27,0.061l-0.33,0.12
		l-0.27,0.149l-0.21,0.271l-0.24,0.18l-0.27,0.21l-0.359,0.21l-0.24,0.12l-0.271,0.21l-0.27,0.209l-0.27,0.181l-0.811,0.42
		l-0.659,0.39l-0.66,0.479l-0.6,0.45l-0.54,0.54l-0.539,0.539l-0.54,0.54l-0.51,0.6v0.061v0.119v0.061v0.149h0.06L139.028,63.906z
		 M230.224,74.522h0.271l0.27-0.061l0.27-0.09l0.271-0.06h0.18l0.27-0.061l0.271-0.06h0.27l0.33-0.15l0.27-0.119l0.33-0.061
		l0.27-0.09l0.271-0.06l0.27-0.061l0.27-0.06l0.181-0.15l0.27-0.06l0.27-0.12l0.271-0.15l0.27-0.119l0.33-0.15l0.271-0.18
		l0.329-0.15l0.33-0.06l0.81-0.39l0.81-0.42l0.78-0.391l0.81-0.419l0.81-0.391l0.78-0.39l0.81-0.42l0.81-0.33h0.27h0.27l0.181-0.06
		l0.21-0.12l0.12-0.09l0.149-0.12l0.18-0.06l0.21-0.061l2.459-1.619l0.091-0.27l0.119-0.12l0.15-0.15l0.18-0.119l0.061-0.271
		l0.21-0.21l0.21-0.18l0.27-0.21l0.12-0.33v-0.33v-0.42l0.149-0.329l-0.959-0.78l-0.061-0.21l-0.18-0.149l-0.15-0.12l-0.119-0.21
		l-3.089-0.06l-0.12,0.06l-0.061,0.09l-0.09,0.12l-0.12,0.12l-2.339,1.469l-0.06,0.091l-0.061,0.06l-0.09,0.12l-0.06,0.06
		l-0.39,0.15l-0.271,0.21l-0.27,0.18l-0.391,0.21l-0.419,0.27l-0.391,0.271l-0.39,0.27l-0.33,0.33l-0.359,0.27l-0.39,0.271
		l-0.48,0.239l-0.449,0.271l-0.061,0.09h-0.09l-0.06,0.06l-0.45,0.18l-0.479,0.21l-0.39,0.271l-0.33,0.33l-0.33,0.329l-0.359,0.33
		l-0.33,0.42l-0.33,0.39l-2.52,2.55l-0.959,0.989l-0.061,0.54h0.15H230.224z M80.46,93.805l0.72-0.09l0.75-0.06l0.72-0.061
		l0.81-0.12l0.72-0.149l0.749-0.12l0.72-0.149l0.75-0.181l0.45-0.21l0.479-0.27l0.39-0.21l0.42-0.27l0.33-0.24l0.39-0.27l0.33-0.271
		l0.33-0.27h0.149h0.061l0.12-0.06l0.21-0.091l0.149-0.18l0.12-0.149l0.21-0.12l0.18-0.21l1.14-1.319l0.42-0.69l1.439-1.709
		l0.63-0.87h0.12h0.06h0.061l0.419-0.42l0.391-0.329l0.39-0.271l0.42-0.329l0.39-0.271l0.33-0.39l0.27-0.39l0.271-0.48l1.739-1.319
		l0.81-1.739l1.709-2.879l1.14-1.47l0.21-0.659l0.061-0.061l0.149-0.09l0.061-0.06l0.119-0.061l0.75-1.259l0.54-1.08l0.12-0.989
		l0.93-1.949l0.06-0.061l0.09-0.06l0.06-0.061l0.061-0.149l-0.061-0.061l-0.06-0.06l-0.09-0.09l-0.06-0.061l-0.061-1.319l-0.21-0.27
		l-0.18-0.33l-0.09-0.42l-0.061-0.39v-0.39l0.061-0.42v-0.39l0.09-0.39l0.24-0.271l0.149-0.33l0.12-0.27l0.21-0.271v-0.149
		l0.06-0.12v-0.06v-0.091l2.399-2.068v-0.72l-0.27-0.21l-0.33-0.12l-0.33-0.061h-0.39h-0.33l-0.42,0.12l-0.33,0.15l-0.329,0.12
		l-0.39,0.21l-0.48,0.18l-0.39,0.21l-0.479,0.21l-0.061,0.06v0.061v0.149l-0.06,0.12l-4.198,2.729v0.061l-0.091,0.149l-0.06,0.061
		l-0.06,0.15l-0.99,0.509l-0.09,0.091l-0.06,0.06l-0.12,0.12l-0.061,0.06l-0.479,0.21l-0.39,0.27l-0.42,0.33l-0.27,0.33l-0.271,0.33
		l-0.33,0.42l-0.27,0.33l-0.33,0.27l-0.39,0.45l-0.479,0.42l-0.45,0.39l-0.33,0.479l-0.54,0.51l-0.479,0.54l-0.51,0.54l-0.54,0.6
		l-0.54,0.54l-0.539,0.539l-0.54,0.511l-0.51,0.6l-0.21,0.689l-0.33,0.45l-0.42,0.419l-0.239,0.391l-0.36,0.27l-0.39,0.33
		l-0.33,0.27l-0.33,0.33l-0.33,0.33l-0.27,0.329l-0.27,0.48l-0.271,0.45l-0.06,0.149l-0.06,0.12l-0.091,0.21l-0.06,0.12l-0.39,0.479
		l-0.93,1.14l-2.22,5.278v0.12l-0.119,0.119l-0.061,0.09l-0.149,0.12l-0.12,0.66l-0.21,0.21l-0.12,0.27l-0.149,0.33l-0.061,0.27
		L81,87.987l-0.091,0.06l-0.06,0.15v0.39l-0.06,0.42l-0.15,0.33l-0.18,0.329v0.391l-0.061,0.33l-0.149,0.42l-0.271,0.329l-0.18,0.93
		l-0.09,0.061l-0.06,0.06l-0.061,0.09l-0.06,0.12v0.21v0.18l-0.09,0.33v0.27l0.21,0.15l0.21,0.06l0.33,0.12L80.46,93.805z
		 M156.241,102.592h0.811l0.779-0.12l0.75-0.15l0.72-0.119l0.749-0.21l0.72-0.12l0.81-0.21l0.811-0.18l0.18-0.15l0.33-0.12
		l0.27-0.149l0.149-0.271l1.38-0.539l3.209-1.92l1.079-1.079l0.061-0.061l0.12-0.06h0.149h0.21l0.45-0.48l0.479-0.449l0.45-0.479
		l0.479-0.45l0.45-0.479l0.42-0.54l0.449-0.45l0.48-0.539l0.39-0.391l0.42-0.359l0.33-0.33l0.39-0.33l0.33-0.39l0.33-0.33l0.27-0.42
		l0.27-0.449l2.129-2.069l3.359-6.088l1.589-2.579v-0.15l0.12-0.18l0.15-0.21l0.21-0.149l0.33-0.87v-0.33l0.119-0.39l0.15-0.33
		l0.18-0.27v-0.33l0.061-0.33l0.149-0.329l0.27-0.33v-0.359l0.061-0.33l0.12-0.33l0.21-0.33l0.149-2.279v-0.06h0.12l0.06-0.12
		l0.061-0.15v-1.05l-0.061-0.09v-0.06l-0.06-0.12l-0.06-0.06l-0.061-0.21l0.061-0.21l0.119-0.12l0.061-0.21l-0.061-0.061v-0.06
		l-0.06-0.09l-0.06-0.06l-0.061-0.181l0.061-0.21l0.119-0.21l0.061-0.21v-0.06v-0.06v-0.12v-0.09l-0.061-0.061v-0.06l-0.06-0.061
		l-0.06-0.09l-0.21-2.459l-0.21-0.21l-0.061-0.239l-0.12-0.36v-0.239l-0.419-0.601l-0.66-0.479l-0.72-1.14l-0.75-0.06l-0.659-0.271
		l-0.601-0.27l-0.659-0.33l-0.6-0.21l-0.689-0.12l-0.66,0.12l-0.72,0.33h-0.54l-0.479,0.149l-0.45,0.12l-0.42,0.15l-0.45,0.18
		l-0.39,0.09l-0.479,0.061h-0.479l-0.6,0.93l-2.52,2.398l-1.199,1.26l-1.859,1.799l-0.81,1.08l-0.15,0.33l-0.18,0.21l-0.33,0.119
		l-0.27,0.271l-2.159,2.129l-0.601,1.14l-1.109,0.81v0.061l-0.09,0.06v0.09l-0.06,0.061l-0.78,0.659h-0.09h-0.12h-0.149h-0.18
		l-0.69,0.48l-0.6,0.449l-0.6,0.54l-0.6,0.479l-0.6,0.51l-0.51,0.54l-0.54,0.54l-0.601,0.54l-5.008,3.599l-1.799,1.26l-1.2,0.659
		l-0.21,0.27l-0.21,0.271l-0.239,0.27l-0.21,0.21l-0.271,0.27l-0.27,0.271l-0.33,0.24l-0.27,0.209h-0.12l-0.15,0.061h-0.06
		l-0.12,0.09l-0.09,0.061l-0.06,0.06l-0.061,0.12l-0.149,0.09l-0.061,0.06h-0.12h-0.089h-0.121l-0.929,0.87l-1.08,0.81l-1.14,0.659
		l-1.199,0.601l-1.26,0.6l-1.319,0.449l-1.35,0.48l-1.409,0.39l-1.109,0.27l-1.14,0.271l-1.14,0.33l-1.14,0.27l-1.14,0.21
		l-1.109,0.12l-1.141-0.061l-1.139-0.21l-0.271-0.18l-0.27-0.21l-0.27-0.12l-0.33-0.21l-0.271-0.149l-0.27-0.18l-0.18-0.271
		l-0.15-0.27l-0.06-0.061l-0.061-0.06l-0.06-0.09l-0.27-0.779l-0.15-0.811l-0.12-0.81v-0.869v-0.87v-0.779l0.061-0.87l0.06-0.869
		v-0.15l0.061-0.12l0.09-0.12l0.06-0.149l0.93-1.8l0.21-0.989l0.659-0.87l0.601-1.889l1.589-2.579l1.41-1.739l2.729-2.939l0.27-0.39
		l0.42-0.27l0.391-0.21l0.39-0.12l0.479-0.15l0.45-0.21l0.479-0.119l0.39-0.271l0.48-0.21l0.39-0.12l0.479-0.06l0.39-0.15
		l0.391-0.06l0.42-0.061l0.39-0.149l0.39-0.18l0.359,0.06l0.33-0.06h0.33l0.27-0.15l0.33-0.06l0.271-0.12l0.27-0.15l0.33-0.06
		l0.39-0.15l0.479-0.119l0.45-0.061l0.479-0.149l0.45-0.12l0.42-0.15l0.39-0.12l0.39-0.209l1.29-0.33l1.199-0.39l1.199-0.33
		l1.14-0.42l1.11-0.33l1.229-0.39l1.2-0.39l1.26-0.48l0.39-0.21l0.42-0.18l0.39-0.21l0.45-0.12l0.359-0.21l0.39-0.27l0.33-0.21
		l0.33-0.271l2.129-2.788l-0.18-0.21l-0.09-0.33l-0.061-0.33v-0.39l-0.929-1.409l-0.48-0.391l-0.39-0.479l-0.45-0.39l-0.419-0.42
		l-0.54-0.39l-0.51-0.33l-0.601-0.33l-0.689-0.21l-0.06-0.06l-0.061-0.061l-0.06-0.149l-0.09-0.061l-0.391-0.119l-0.27-0.15
		l-0.33-0.21l-0.39-0.18l-1.02-0.33l-1.05-0.27l-1.079-0.15l-0.99-0.06l-1.02,0.06l-0.989,0.21l-0.93,0.33l-0.87,0.479l-0.21,0.181
		l-0.18,0.209l-0.21,0.21l-0.12,0.12l-0.149,0.061h-0.061h-0.149l-0.061,0.09l-1.259,1.259l-2.549,1.53l-1.32,1.259l-1.409,1.29
		l-0.12,0.33l-0.21,0.18l-0.27,0.27l-0.271,0.21l-2.998,3.329l-0.33,0.54l-0.39,0.449l-0.48,0.42l-0.539,0.33l-0.511,0.33
		l-0.539,0.21l-0.54,0.27l-0.6,0.18l-0.87,0.15l-0.81,0.06l-0.87,0.061l-0.869,0.06l-0.84,0.09l-0.869-0.09h-0.81l-0.87-0.06
		l-0.87-0.061l-0.81-0.12l-0.869-0.149l-0.78-0.21l-0.81-0.12l-0.81-0.27l-0.779-0.271l-0.75-0.27l-0.33-0.54l-0.12-0.51
		l-0.149-0.54v-0.539l0.06-0.54v-0.51l0.09-0.479v-0.48l0.061-0.06l0.06-0.061l0.06-0.149l0.091-0.061v-0.06l-0.091-0.06
		l-0.06-0.061l-0.06-0.09l-0.061-0.6l0.18-0.27l0.211-0.391v-0.39l-0.12-0.42l-0.091-0.06l-0.06-0.12v-0.09l-0.6-0.18l-1.319-2.34
		l-0.271-0.27l-0.329-0.27l-0.36-0.21l-0.39-0.181l-0.33-0.21l-0.39-0.119l-0.42-0.21l-0.39-0.12l-0.75-0.15h-0.779h-0.75
		l-0.66,0.15l-0.72,0.12l-0.689,0.119l-0.66,0.271l-0.659,0.27l-0.66,0.271l-0.6,0.329l-0.689,0.33l-0.6,0.36l-0.601,0.329
		l-0.659,0.33l-0.6,0.33l-0.6,0.27l-0.48,0.391l-0.39,0.39l-0.45,0.359l-0.539,0.271l-0.33,0.18l-0.36,0.21l-0.239,0.21l-0.271,0.18
		l-0.27,0.21l-0.27,0.21l-0.33,0.18l-0.271,0.21v0.061l-0.06,0.06l-0.09,0.15l-0.061,0.06l-0.12,0.12l-0.149,0.09l-0.18,0.12
		l-0.21,0.06h-0.061l-0.06,0.09l-0.149,0.061l-0.061,0.12l-0.15,0.149l-0.119,0.061h-0.21l-0.181,0.06l-0.09,0.15l-0.12,0.119
		l-0.149,0.15l-0.181,0.06v0.061l-0.06,0.06v0.06l-0.149,0.15h-0.21l-0.181,0.061l-0.209,0.06l-0.33,0.54l-0.391,0.39l-0.419,0.42
		l-0.45,0.39l-0.479,0.33l-0.45,0.33l-0.54,0.359l-0.539,0.39l-0.87,1.26l-0.33,0.15l-0.33,0.119l-0.33,0.271l-0.209,0.39
		l-0.271,0.6l-0.449,0.479l-0.54,0.33l-0.479,0.33l-0.45,0.93l-0.27,0.271l-0.42,0.149h-0.45h-0.479v0.39v0.39v0.42l-0.061,0.391
		l-0.06,0.39l-0.15,0.42l-0.18,0.39l-0.27,0.39l-0.271,0.33l-0.27,0.42l-0.21,0.33L81,75.842l-0.21,0.27l-0.061,0.21l-0.149,0.12
		l-0.12,0.21l-1.409,2.669l-0.12,0.72l-0.09,0.09H78.78l-0.12,0.061l-0.06,0.06l-0.15,0.66l-0.659,0.959l-1.409,2.729l-0.811,2.069
		l-0.39,0.659l-0.39,0.87l-0.689,2.249l-0.6,1.14v0.09v0.06v0.12v0.061v0.09l0.09,0.06l0.119,0.061l0.061,0.06l0.09,2.219l0.06,0.12
		l0.12,0.061l0.061,0.149l0.149,0.061l0.12,3.748l0.15,0.18l0.06,0.211l0.06,0.209l0.061,0.271l0.869,0.779l1.2,0.15l1.199,0.27
		l1.229,0.39l1.199,0.391l1.26,0.33l1.2,0.149l1.14-0.149l1.139-0.511l0.391-0.09l0.329-0.18l0.271-0.27l0.27-0.33l1.59-0.54
		l1.409-1.47l1.739-1.259l0.54-0.48l0.51-0.449l0.54-0.48l0.539-0.479l0.601-0.45l0.539-0.479l0.54-0.54l0.45-0.6l0.06-0.06
		l0.09-0.12l0.061-0.061v-0.09l0.6-0.659l0.12-0.061h0.06l0.15-0.06l0.21-0.09l0.06-0.061l0.06-0.06l0.061-0.061v-0.149l0.54-0.45
		l0.539-0.54l0.54-0.479l0.6-0.51l0.601-0.479l0.51-0.54l0.539-0.54l0.48-0.6l0.449-0.66l0.21-0.209l0.15-0.181l0.18-0.21l0.27-0.12
		l1.41-2.339l0.39-0.42l0.33-0.449l0.27-0.48l0.27-0.51l0.15-0.42l0.18-0.39l0.15-0.33l0.12-0.329l0.06-0.15l0.09-0.06l0.06-0.061
		l0.061-0.09l0.479-0.84l0.12-1.079l0.75-1.26l0.39-0.479l1.739-2.34l0.12-0.27l0.21-0.18l0.12-0.271l0.21-0.27l0.329-0.39
		l0.33-0.479l0.33-0.33l0.479-0.15h0.811h0.779h0.81l0.81,0.09l0.78,0.061h0.81l0.81,0.06l0.78,0.06h0.749l0.81,0.091h0.779
		l0.75,0.06h0.78h0.81h0.75l0.779-0.06l0.27,0.12l0.15,0.27l0.061,0.27l0.209,0.271l-0.749,0.659l-2.01,2.999l-1.319,2.069
		l-1.949,2.999l-0.78,0.869l-0.479,1.14l-0.33,0.99l-0.479,1.02v1.589v0.061l-0.06,0.06l-0.12,0.15l-0.061,0.119v0.15l-0.09,0.18
		l-0.06,0.21l-0.21,0.21v3.929l0.09,0.06h0.06l0.061,0.061l0.06,0.09l0.09,0.66l0.061,0.06h0.06l0.061,0.06l0.06,0.09v0.12v0.061
		v0.149v0.12l2.159,3.809l2.069,1.529l0.6,0.271l1.529,0.929l0.72,0.061l0.811,0.15l0.809,0.06l0.78,0.06h0.81l0.81-0.119
		l0.72-0.271l0.66-0.39l4.828-1.89l2.849-1.049l1.89-1.29l1.379-0.989l1.26-0.87l0.09-0.06v-0.061l0.061-0.09v-0.06l0.659-0.33
		l0.6-0.39l0.54-0.42l0.6-0.45l0.54-0.39l0.54-0.36l0.66-0.329l0.659-0.18l0.479-0.36l0.45-0.33l0.479-0.27l0.54-0.24l4.738-3.539
		l3.269-2.278l2.999-2.729l0.66-0.6l0.12-0.149l0.21-0.061l0.21-0.06l0.18-0.061l3.208-2.938l1.53-1.68l0.33-0.12l0.359-0.149
		l0.24-0.181l0.21-0.21l0.21-0.209l0.18-0.271l0.21-0.18l0.27-0.21l0.87-1.199l2.938-2.609l1.409-1.529l0.12-0.061l0.21-0.149
		l0.181-0.061l0.27-0.06l0.42-0.33l0.449-0.27l0.54-0.21l0.54-0.27l0.449-0.181l0.54-0.21l0.54-0.06h0.479h0.51l0.48,0.12l0.39,0.21
		l0.42,0.27l0.449,0.72l0.061,5.218l-0.061,0.061l-0.06,0.06l-0.149,0.061l-0.061,0.149l-0.12,1.68l-0.33,1.589l-1.739,3.809
		l-0.39,0.391l-2.429,4.078v0.06h-0.12l-0.06,0.061l-0.061,0.149l-1.35,1.2l-0.06,0.06v0.06v0.061l-0.061,0.15l-0.09,0.06
		l-0.06,0.06l-0.12,0.15l-0.09,0.06l-0.12,0.21l-0.12,0.18l-0.21,0.21l-0.06,0.271l-0.479,0.33l-0.45,0.329l-0.479,0.33l-0.391,0.33
		l-0.419,0.33l-0.45,0.359l-0.42,0.39l-0.39,0.391l-0.54,0.329l-0.45,0.36l-0.539,0.33l-0.48,0.39l-0.449,0.39l-0.54,0.42l-0.6,0.33
		l-0.6,0.33l-0.33,0.12l-0.33,0.209l-0.271,0.21l-0.329,0.181l-0.36,0.149l-0.33,0.21l-0.39,0.12l-0.33,0.12l-0.479,0.21
		l-0.449,0.21l-0.48,0.12l-0.45,0.149l-0.479,0.06h-0.479l-0.45-0.06l-0.39-0.149l-0.479-0.45l-0.15-4.139l-0.12-0.149l-0.06-0.061
		l-0.15-0.21l-0.06-0.18l-1.409-0.75l-0.45,0.271l-0.39,0.39l-0.36,0.42l-0.329,0.449l-0.391,0.42v0.181l-0.06,0.21l-0.09,0.21
		l-0.12,0.18l-0.479,0.869l-0.84,1.62l0.06,3.868l2.459,3.059L156.241,102.592z M223.026,103.881l0.78-0.09h0.81l0.75-0.06
		l0.779-0.061l0.75-0.06l0.779-0.149l0.75-0.121l0.81-0.209l0.449-0.061l0.391-0.06l0.479-0.09l0.479-0.061l0.391-0.06l0.39-0.06
		l0.42-0.061l0.329-0.15l0.54-0.119l0.45-0.15l0.479-0.12l0.45-0.149l0.42-0.12l0.449-0.21l0.48-0.12l0.45-0.21l0.27-0.06l0.27-0.15
		l0.27-0.06l0.271-0.061l0.27-0.06l0.271-0.061l0.27-0.149l0.27-0.06l0.66-0.061l0.54-0.15l0.6-0.209l0.51-0.181l0.479-0.21
		l0.54-0.209l0.54-0.181l0.51-0.21l0.42-0.329l5.338-2.67l0.6-0.659l0.45-1.2l0.06-1.619l-0.18-0.18l-0.21-0.09h-0.271l-0.329,0.09
		l-0.33,0.06l-0.27,0.061l-0.33,0.06h-0.33l-0.27,0.15l-0.271,0.06l-0.33,0.12l-0.27,0.09l-0.33,0.061l-0.33,0.06l-0.27,0.06
		l-0.33,0.09l-0.42,0.061l-0.329,0.06l-0.33,0.12l-0.39,0.09l-0.33,0.12l-0.33,0.15l-0.27,0.06l-0.33,0.06l-0.54,0.21l-0.54,0.12
		l-0.539,0.15l-0.45,0.18l-0.479,0.15l-0.48,0.18l-0.449,0.21l-0.391,0.27l-0.27,0.12l-0.27,0.149l-0.271,0.211l-0.21,0.239
		l-0.989,0.09l-1.02,0.12l-0.989,0.15l-0.931,0.12l-0.989,0.21l-1.02,0.119l-0.989,0.061l-1.02,0.09l-0.78,0.18l-0.81,0.21
		l-0.81,0.061l-0.78,0.06h-0.81h-0.72l-0.81-0.06l-0.749-0.12l-0.45-0.15l-0.48-0.12h-0.539h-0.45l-0.479-0.06l-0.45-0.09
		l-0.42-0.12l-0.39-0.21l-0.6-0.99l-0.33-0.149l-0.27-0.12l-0.271-0.12l-0.329-0.209l-0.271-0.15l-0.21-0.18l-0.18-0.271l-0.21-0.33
		l-0.06-2.818l0.18-0.33l0.149-0.39l0.21-0.42l0.24-0.39l0.6-0.811l0.689-0.659l0.72-0.6l0.75-0.54l0.78-0.51l0.81-0.479l0.869-0.54
		l0.87-0.45l0.33-0.21l0.329-0.119l0.33-0.21l0.33-0.271l0.27-0.21l0.33-0.18l0.21-0.271l0.27-0.27l0.54-0.149l0.12-0.12l0.15-0.15
		l0.12-0.06l0.149-0.06h0.06l0.061-0.12l0.06-0.091l0.15-0.06l0.119-0.06h0.061h0.15l0.119-0.061l0.091-0.09l0.119-0.12l0.061-0.06
		l0.06-0.06l1.47-0.69l16.344-7.587l0.33-0.42l0.479-0.27l0.54-0.181l0.45-0.27l0.359-0.149l0.24-0.181l0.359-0.149l0.33-0.181
		l0.27-0.149l0.33-0.12l0.271-0.21l0.27-0.12l0.39-0.21l0.33-0.21l0.33-0.27l0.33-0.18l0.27-0.271l0.27-0.27l0.271-0.27l0.21-0.271
		l0.06-0.21l0.12-0.12l0.15-0.119l0.18-0.15l1.679-2.609v-3.328l-0.119-0.21l-0.15-0.181l-0.06-0.209l-0.061-0.271l-0.27-0.18
		l-0.15-0.36l-0.12-0.329l-0.209-0.271l-0.12-0.449l-0.21-0.33l-0.21-0.33l-0.12-0.27l-0.33-0.42l-0.33-0.39l-0.27-0.391
		l-0.271-0.42l-0.329-0.119l-0.33-0.15l-0.42-0.12l-0.27-0.21l-0.6-0.54l-0.66-0.329l-0.72-0.181l-0.75-0.09h-0.779l-0.75,0.15
		l-0.72,0.12l-0.75,0.21l-0.72,0.33l-0.689,0.329l-0.72,0.33l-0.66,0.33l-0.689,0.27l-0.659,0.36l-0.6,0.39l-0.601,0.33l-0.27,0.21
		l-0.33,0.18l-0.27,0.15l-0.33,0.119l-0.27,0.21l-0.33,0.12l-0.271,0.21l-0.33,0.21l-1.919,1.379l-4.349,3.81l-0.6,0.06l-0.06,0.09
		l-0.09,0.061l-0.061,0.06v0.06l-0.119,0.09l-0.15,0.061l-0.18,0.06l-0.21,0.12l-0.061,0.21l-0.149,0.15l-0.181,0.119l-0.209,0.12
		l-2.55,2.22l-0.39,0.449l-0.39,0.48l-0.479,0.33l-0.45,0.39l-0.27,0.63l-1.29,1.439l-0.449,0.479l-0.54,0.479l-0.54,0.39
		l-0.54,0.48l-0.51,0.45l-0.479,0.539l-0.45,0.54l-0.42,0.66l-0.39,0.449l-0.42,0.54l-0.449,0.54l-0.48,0.479l-0.449,0.45
		l-0.54,0.479L215.8,81l-0.45,0.51l-0.42,0.6l-0.24,0.36l-0.27,0.239l-0.21,0.36L214,83.309l-0.061,0.271l-0.119,0.21l-0.21,0.119
		l-0.21,0.211l-0.12,0.329l-0.27,0.21l-0.271,0.12l-0.21,0.21l-0.51,0.75l-0.21,1.049l-1.409,2.729l-0.66,2.069l-0.06,0.09
		l-0.061,0.06v0.12l0.061,0.21v0.061l-0.061,0.06v0.09l-0.089,0.12l0.27,0.479l-0.27,0.51v0.09v0.12v0.061l0.089,0.06l0.061,0.09
		v0.061l0.06,0.06l0.271,1.8l0.21,0.27l0.119,0.33l0.061,0.42v0.39l0.21,0.21l0.12,0.27l0.09,0.33l0.06,0.33l1.47,2.399l0.54,0.449
		l0.51,0.42l0.6,0.33l0.6,0.33l0.689,0.329l0.601,0.271l0.72,0.21l0.659,0.18l0.75,0.21l0.66,0.12l0.749,0.149l0.72,0.061l0.72,0.06
		l0.75,0.09h0.659H223.026z M2.729,104.001l0.421-0.12l0.389-0.09h0.391l0.42-0.06l0.39-0.061l0.39-0.06l0.33-0.149l0.359-0.181
		l0.66-0.09l0.539-0.12l0.601-0.149l0.45-0.18l0.539-0.211l0.48-0.21l0.449-0.18l0.54-0.21l0.81-0.27l0.72-0.33l0.659-0.39
		l0.75-0.33l0.66-0.359l0.75-0.33l0.719-0.33l0.721-0.27l0.42-0.181l0.39-0.209l0.39-0.211l0.42-0.27l0.21-0.06h0.06h0.12
		l0.149-0.061l0.33-0.33l0.33-0.149l0.45-0.12l0.42-0.12l0.45-0.27l0.479-0.27l0.48-0.21l0.449-0.271l0.541-0.21l0.449-0.239
		l0.54-0.211l0.479-0.149l1.14-0.24l1.11-0.209l1.139-0.061l1.2-0.09l1.14-0.061l1.139,0.061l1.141,0.09l1.199,0.061l1.139,0.119
		l1.11,0.21l1.14,0.12l1.14,0.21l1.14,0.15l1.139,0.18l1.051,0.21l1.139,0.119l0.54,0.15l0.54,0.061l0.449,0.119l0.541,0.091
		l0.389,0.119l0.48,0.15l0.479,0.12l0.45,0.149l1.02,0.12l0.93,0.061l0.989,0.06l0.93,0.09l0.93,0.06l0.93,0.12l1.02,0.091
		l0.93,0.18l0.39,0.149l0.42,0.12l0.33,0.15l0.33,0.12l0.33,0.06l0.329,0.149l0.33,0.12l0.33,0.15l0.54-0.09h0.479l0.54,0.09h0.45
		l0.539,0.12l0.48,0.06l0.449,0.15l0.479,0.119l0.45,0.271l0.54,0.12l0.479,0.149l0.51,0.06h0.54h0.54l0.54-0.119l0.6-0.15
		l0.18-0.06l0.21-0.061l0.15-0.149l0.06-0.12l1.319-1.529l0.479-0.54l0.12-1.47l0.09-0.209l0.061-0.121l0.06-0.06l0.12-0.149v-0.93
		l-0.93-1.41l-0.45-0.39l-0.42-0.33l-0.449-0.329l-0.479-0.42l-0.45-0.181l-0.479-0.149l-0.45-0.06l-0.48,0.06h-0.39l-0.419,0.09
		l-0.391,0.12l-0.39,0.06l-0.87,0.15l-0.81,0.12l-0.81,0.149l-0.869,0.061h-0.78h-0.869h-0.81h-0.811l-0.869-0.061h-0.779
		l-0.811-0.09h-0.81l-0.779-0.06h-0.87h-0.81l-0.81,0.06h-1.199h-1.199h-1.2h-1.26h-1.199l-1.14-0.06l-1.199-0.12l-1.141-0.271
		l-0.869-0.149l-0.779-0.06l-0.87-0.12l-0.869-0.091l-0.81-0.06l-0.87-0.06l-0.87-0.061l-0.779-0.06l-0.869-0.09h-0.87h-0.81h-0.87
		l-0.81,0.09l-0.869,0.06l-0.78,0.061l-0.87,0.119h-0.539l-0.54,0.091l-0.54,0.12l-0.51,0.149l-0.539,0.12l-0.601,0.21l-0.54,0.12
		l-0.539,0.149l-0.18,0.12l-0.211,0.12l-0.27,0.09l-0.33,0.06l-0.06,0.061l-0.09,0.06l-0.06,0.15l-0.061,0.06l-0.27,0.12l-0.21,0.15
		l-0.24,0.06l-0.271,0.06l-0.209,0.09l-0.27,0.061l-0.271,0.12l-0.271,0.149l-0.389,0.181l-0.33,0.149l-0.42,0.12l-0.391,0.149
		l-0.33,0.181l-0.389,0.149l-0.33,0.12l-0.359,0.15l-0.511,0.06l-0.54,0.12l-0.479,0.15l-0.39-0.15l-0.061-0.061v-0.06v-0.12
		l-0.09-0.149l2.43-3.809l0.239-0.18l0.271-0.271l0.27-0.27l0.21-0.33l0.271-0.21l0.27-0.27l0.33-0.211l0.39-0.119l5.817-5.458
		l0.33-0.479l0.33-0.391l0.39-0.42l0.42-0.39l0.271-0.21l0.239-0.27l0.271-0.18l0.27-0.21l0.21-0.271l0.27-0.21l0.181-0.18
		l0.27-0.21l0.27-0.27l0.33-0.271l0.27-0.27l0.21-0.24l0.93-0.959l0.271-0.45l0.33-0.42l0.329-0.39l0.42-0.391l0.39-0.329
		l0.391-0.42l0.42-0.33l0.449-0.33l0.061-0.06l0.09-0.061l0.06-0.089l0.06-0.061l0.15-0.12l0.12-0.09l0.21-0.06l0.27-0.181
		l0.24-0.21l0.27-0.21l0.33-0.18l0.27-0.149l0.21-0.21l0.21-0.181l0.18-0.21l0.42-0.39l0.391-0.42l0.33-0.33l0.42-0.27l0.389-0.33
		l0.391-0.329l0.33-0.391l0.359-0.479l0.39-0.45l0.271-0.54l0.449-0.39l0.42-0.42l0.391-0.329l0.06-0.061h0.149h0.061l1.739-2.219
		l0.45-0.66l3.479-3.118l0.06-0.091v-0.119v-0.061v-0.149l0.06-0.061l0.15-0.06l0.061-0.061l0.149-0.09l1.38-1.979l0.539-0.689
		l0.66-0.6l0.6-0.659l0.75-0.601l0.72-0.6l0.689-0.6l0.72-0.6l0.72-0.6l0.48-0.33l0.329-0.33l0.33-0.33l0.48-0.27l1.259-1.35
		l1.35-1.199l0.45-0.721l0.42-0.479l0.449-0.449l0.39-0.54l0.48-0.479l0.33-0.45l0.329-0.479l0.271-0.391l0.21-0.479l0.12-0.45
		l0.21-0.359l0.209-0.39l0.271-0.391l0.12-0.329l0.12-0.271l0.149-0.27l0.27-0.27l1.26-1.2v-0.06l0.061-0.15v-0.06v-0.061
		l0.539-0.329l0.48-0.33l0.39-0.42l0.39-0.45l0.42-0.42l0.33-0.449l0.39-0.48l0.42-0.39l0.06-0.06v-0.15l0.061-0.06l0.989-0.99
		l0.15-0.149l0.18-0.061l0.21-0.06l0.21-0.09l1.26-1.59l0.149-0.21l0.181-0.18l0.21-0.33l0.209-0.27l0.45-0.54l0.54-0.479l0.54-0.45
		l0.449-0.42l0.54-0.449l0.479-0.54l0.45-0.54l0.33-0.659l3.089-2.729l0.06-0.27l0.21-0.21l0.12-0.27l0.21-0.33l0.18-0.45l0.21-0.36
		l0.27-0.39l0.271-0.39l0.27-0.539l0.33-0.48l0.39-0.39l0.54-0.39l1.68-2.13l1.049-1.289l0.66-0.45l0.6-0.6l0.54-0.6l0.54-0.75
		l0.6-0.659l0.54-0.66l0.6-0.6l0.6-0.601l0.93-0.959l0.33-0.93l0.42-0.45l0.06-0.21l0.061-0.119l0.209-0.15l0.181-0.12l0.09-0.75
		l0.119-0.119l0.061-0.15l0.15-0.12l0.06-0.21l2.459-3.718l0.06-0.211l0.091-0.119l0.12-0.21l0.209-0.15l0.12-0.72v-0.06h0.061
		l0.149-0.15l0.061-0.12l0.149-1.259l0.06-0.15l0.061-0.06l0.06-0.15l0.061-0.12V2.01V1.949l-0.061-0.09l-0.06-0.06l-0.061-0.061
		l-0.209-0.81l-0.061-0.12l-0.149-0.09L92.455,0.6l-0.06-0.119l-0.6-0.271L91.195,0h-0.6h-0.6l-0.6,0.21l-0.6,0.18l-0.54,0.33
		l-0.54,0.42l-0.72,0.87l-1.409,2.459l-0.27,0.27l-0.271,0.27l-0.27,0.271l-0.24,0.27l-0.27,0.33l-0.27,0.33l-0.271,0.329
		l-0.21,0.48l-0.21,0.239l-0.18,0.271l-0.21,0.21l-0.12,0.27l-0.21,0.271l-0.12,0.27l-0.09,0.27l-0.12,0.271l-0.06,0.12l-0.15,0.119
		l-0.119,0.15l-0.21,0.12l-0.87,1.679l-0.06,0.33l-0.15,0.33l-0.18,0.27l-0.27,0.21l-0.271,0.271l-0.21,0.27l-0.27,0.33l-0.12,0.33
		l-0.27,0.329l-0.21,0.271l-0.24,0.27l-0.27,0.27l-0.271,0.271l-0.27,0.18l-0.271,0.271l-0.329,0.209l-0.15,0.271l-0.18,0.27
		l-0.15,0.33l-0.06,0.39l-1.47,1.68l-0.869,0.989l-1.14,1.08l-0.061,0.06l-0.06,0.061l-0.15,0.06h-0.119l-1.41,1.68l-2.069,2.009
		l-0.27,0.51l-0.33,0.48l-0.33,0.39l-0.33,0.33l-0.39,0.419l-0.42,0.33l-0.39,0.391l-0.33,0.42l-0.479,0.329l-0.39,0.33l-0.33,0.33
		l-0.33,0.33l-0.329,0.39l-0.36,0.359l-0.33,0.33l-0.33,0.33l-0.54,0.81l-1.648,1.38l-1.41,1.02l-0.06,0.659l-0.061,0.12l-0.09,0.15
		l-0.06,0.18l-0.06,0.15l-0.21,0.119l-0.12,0.15l-0.061,0.12l-0.09,0.21l-3.988,3.269l-0.87,1.319l-0.929,0.87l-1.14,0.749
		l-0.66,1.53l-2.609,2.069l-0.479,0.72l-0.93,0.869l-1.109,1.529l-1.35,2.159l-1.26,1.05l-0.15,0.42l-0.119,0.24l-0.27,0.27
		l-0.271,0.27l-0.6,0.93l-1.2,1.29l-0.119,0.51l-0.27,0.42l-0.33,0.39l-0.42,0.33l-0.391,0.42l-0.479,0.329l-0.39,0.391l-0.33,0.479
		l-2.279,2.579l-1.649,1.469l-1.679,2.16l-0.87,1.109l-0.93,1.079l-1.739,1.529l-1.26,1.529l-0.21,0.69l-2.129,2.069l-2.279,1.979
		l-0.12,0.33l-0.15,0.149l-0.27,0.21l-0.24,0.12l-0.869,1.199l-0.93,0.989l-2.609,3.089l-1.289,1.32l-0.119,0.27l-0.211,0.21
		l-0.33,0.12l-0.27,0.21l-0.12,0.27l-0.21,0.271l-0.27,0.18l-0.18,0.21l-3.09,2.549l-0.93,0.989l-0.209,0.33l-0.24,0.21l-0.27,0.33
		l-0.21,0.39l-0.39,0.659l-0.42,0.69l-0.391,0.6l-0.479,0.6l-0.45,0.54l-0.479,0.51l-0.54,0.42l-0.51,0.39l-2.759,2.729l-0.12,0.06
		l-0.06,0.149v0.121l-0.06,0.209l-0.271,0.21l-0.271,0.271l-0.209,0.239l-0.21,0.271l-0.181,0.27l-0.149,0.33l-0.18,0.36
		l-0.15,0.329l-0.271,0.271l-0.27,0.239l-0.33,0.21l-0.33,0.271l-0.27,0.27l-0.27,0.33l-0.12,0.329v0.48v0.12l-0.15,0.149
		l-0.06,0.061L0,101.332v0.6l0.06,0.21l0.15,0.18l0.06,0.21l0.06,0.211l0.93,0.929L2.729,104.001z M148.895,137.828l0.6-0.209
		l0.6-0.181l0.6-0.27l0.54-0.33l0.54-0.359l0.45-0.391l0.479-0.329l0.479-0.391l6.178-5.218l0.09-0.21l0.12-0.12l0.21-0.06
		l0.18-0.15l1.56-1.739l0.45-0.72l0.479-0.39l1.14-2.069l0.39-0.93l0.12-0.869v-0.09v-0.061v-0.06l-0.061-0.061l-0.989,0.12
		l-1.02,0.061l-0.989,0.149l-0.99,0.06l-1.02,0.15l-0.989,0.06l-0.989,0.12l-1.02,0.061l-1.05,0.149l-1.02,0.12l-0.99,0.15
		l-1.079,0.119l-0.99,0.15l-0.989,0.12l-1.08,0.149l-0.989,0.12l0.06,4.798l0.061,0.061l0.06,0.09l0.061,0.12l0.09,0.06l-0.271,0.42
		v0.6l0.061,0.061l0.06,0.12l0.061,0.09l0.09,0.06l0.12,6.268l0.479,0.6h0.06H148.895z M163.379,145.355l0.06-0.06l0.061-0.061
		l0.09-0.06l0.06-0.149v-0.061l-0.06-0.06l-0.09-0.091l-0.061,0.091l-0.329,0.329v0.061l0.119,0.149l0.09,0.061L163.379,145.355z
		 M148.444,146.766l0.93,0.06l0.78-0.12l0.81-0.27l0.659-0.33l0.689-0.42l0.66-0.39l0.6-0.39l0.66-0.33l0.27-0.21l0.271-0.271
		l0.27-0.209l0.27-0.271l0.271-0.24l0.27-0.209l0.24-0.271l0.359-0.21l2.249-2.339l0.33-0.33l0.33-0.33l0.42-0.329l0.39-0.33
		l0.39-0.33l0.36-0.33l0.33-0.479l0.27-0.45l0.45-0.479l0.93-1.199l1.199-1.53l0.81-1.02l2.669-2.849l0.061-0.149v-0.061v-0.12
		l0.09-0.149l0.659-0.601l0.87-1.139l1.589-1.11l2.399-4.408h1.08l0.989-0.09h1.08h1.049h1.08l1.05-0.06h1.079h1.14l1.05-0.061
		h1.079l1.08-0.06l1.05-0.061l1.079-0.09l1.05-0.119l1.02-0.15l1.05-0.12l0.81-0.12l0.75-0.149l0.72-0.061l0.749-0.06h0.78h0.75
		l0.719,0.12l0.75,0.149l0.93-0.09l0.93-0.06l0.87-0.061l0.93-0.06h0.869h0.93h0.87h0.93h0.869h0.93l0.87-0.09h0.869l0.93-0.061
		h0.87l0.93-0.12l0.869-0.06l0.601,0.06l0.6,0.061l0.6,0.06h0.6h0.6h0.54l0.6,0.061l0.54,0.09h0.33l0.27-0.09l0.33-0.061l0.27-0.06
		h0.271l0.18-0.061l0.27-0.06l0.271-0.09h0.749h0.66h0.72h0.689l0.72,0.09l0.66,0.06l0.75,0.12l0.659,0.15h0.93h0.87h0.929h0.87
		l0.93,0.06h0.87h0.93l0.869-0.06h0.75l0.72,0.06l0.749,0.061l0.72,0.06l0.66,0.15l0.75,0.119l0.659,0.211l0.601,0.209l0.419,0.061
		h0.391l0.39,0.06h0.42h0.39h0.39l0.42-0.06l0.39-0.15l2.609-2.069v-1.799l-0.149-0.18l-0.12-0.21l-0.15-0.21l-0.06-0.18l-0.54-0.75
		l-0.72-0.54l-0.87-0.39l-0.93-0.33l-0.929-0.21h-1.02h-0.99l-0.93,0.21l-1.26,0.33l-1.289,0.119l-1.26,0.091h-1.26l-1.259-0.091
		h-1.229l-1.26,0.091l-1.2,0.12l-0.539-0.061l-0.51-0.15l-0.54-0.119l-0.48-0.12l-0.539-0.09l-0.51-0.061h-0.48l-0.539,0.061
		l-1.26,0.21l-1.26,0.119l-1.289,0.15l-1.26,0.061h-1.26l-1.26,0.06h-1.289h-1.199l-1.26-0.06h-1.26h-1.199h-1.29l-1.199,0.06
		h-1.199l-1.26,0.09l-1.2,0.12h-0.329l-0.33-0.06h-0.27h-0.33h-0.33h-0.271l-0.329-0.061h-0.33l-0.479,0.12h-0.391l-0.329,0.06
		l-0.271-0.06l-1.199-0.12l-1.2-0.09h-1.139h-1.2l-1.199,0.09h-1.14L188,116.417l-1.14,0.06l-1.199,0.06h-1.14h-1.2h-1.14
		l-1.14-0.119l-1.109-0.061l-1.14-0.21l-1.14-0.27l-0.06-0.39l0.06-0.33l0.12-0.36l0.27-0.239l0.87-1.62l2.279-4.078l3.599-4.648
		l0.39-0.479l1.199-1.59l0.96-1.469l0.45-0.54l0.149-0.12l0.181-0.09l0.149-0.12l0.18-0.06l1.14-0.87l1.26-2.609l0.479-0.539
		l0.271-0.45l0.33-0.42l0.479-0.39l0.33-0.479l0.18-0.391l0.09-0.39l0.12-0.33l0.33-0.27l0.149-0.33l0.18-0.27l0.21-0.33l0.12-0.42
		l0.271-0.27l0.209-0.33l0.211-0.33l0.18-0.27l0.21-0.33l0.21-0.27l0.27-0.271l0.24-0.27l0.27-0.45l0.36-0.479l0.329-0.45
		l0.271-0.479l0.18-0.479l0.21-0.33l0.27-0.39l0.271-0.391l0.449-0.479l0.48-0.39l0.39-0.479l0.27-0.601l0.061-0.06l0.149-0.06
		l0.061-0.091l0.06-0.119v-0.12l0.061-0.21l0.149-0.15l0.12-0.12l0.539-1.199l1.261-1.26l1.02-2.159l0.72-0.6l0.149-0.33l0.18-0.27
		l0.271-0.181l0.42-0.149l0.6-0.6l1.199-2.069l2.189-2.579l0.39-1.02l0.96-0.93l0.06-0.21l0.06-0.12l0.12-0.12l0.21-0.149
		l0.15-0.271l0.12-0.27v-0.27l0.06-0.271v-0.329l-0.06-0.271v-0.33v-0.329l-0.66-0.66l-0.54-1.199l-0.27-0.271l-0.33-0.21
		l-0.39-0.18l-0.42-0.09l-0.45-0.061h-0.479l-0.45,0.061l-0.479,0.149l-0.39,0.211l-0.271,0.119l-0.209,0.21l-0.271,0.18
		l-0.27,0.271l-0.18,0.27l-0.21,0.27l-0.21,0.271l-0.181,0.27l-0.21,0.271l-0.209,0.27l-0.181,0.18l-0.09,0.21l-0.12,0.12
		l-0.21,0.09l-0.06,0.12l-0.06,1.199v0.061l-0.061,0.09l-0.09,0.12l-0.061,0.149l-0.06,0.24l-0.06,0.27l-0.21,0.271l-0.12,0.27
		l-1.08,2.069l-1.679,1.47l-2.189,3.479l-0.06,0.51l-1.35,1.35v0.06v0.15l-0.061,0.06l-0.06,0.21l-0.81,0.66l-0.601,1.529
		l-0.06,0.271l-0.149,0.209l-0.12,0.12l-0.21,0.12l-0.061,0.54l-0.06,0.06l-0.061,0.09l-0.149,0.12l-0.06,0.06l-1.47,2.489
		l-0.061,0.061l-0.09,0.06l-0.119,0.061l-0.061,0.09l-0.27,0.39l-0.271,0.39l-0.329,0.42l-0.21,0.39l-0.271,0.21l-0.18,0.18
		l-0.21,0.271l-0.12,0.27l-0.21,0.271l-0.149,0.27l-0.18,0.27l-0.15,0.33l-0.12,0.33l-0.149,0.27l-0.181,0.271l-0.149,0.27
		l-0.87,0.6l-0.06,0.271l-0.12,0.12l-0.15,0.149l-0.119,0.06l-2.01,3.06v0.06l-0.06,0.15l-0.061,0.06l-0.09,0.12l-1.529,1.35
		l-0.18,0.39l-0.36,0.33l-0.39,0.21l-0.39,0.33l-2.01,2.879l-1.589,1.799l-0.54,0.66l-1.079,1.199h-0.121h-0.06h-0.149l-0.12,0.06
		l-0.69,1.2L174.715,107l-0.061,0.061v0.149l-0.06,0.06l-0.09,0.15l-1.109,1.05l-1.8,2.009l-0.09,0.66l-0.72,0.989l-0.06,0.15
		l-0.091,0.06l-0.06,0.061l-0.06,0.09l-0.99,0.659l-0.09,0.061l-0.06,0.149v0.061l-0.061,0.119l-0.869,0.48l-0.87,0.449l-0.93,0.42
		l-0.93,0.391l-0.93,0.39l-0.959,0.42l-0.93,0.39l-0.87,0.39l-0.779-0.06h-0.81h-0.721h-0.749l-0.81,0.06h-0.72l-0.75,0.09h-0.78
		l-0.149-0.09l-0.06-0.06l-0.061-0.061l-0.149-0.12h-0.12l-0.061,0.12l-0.06,0.061l-0.09,0.149l-0.78,0.271l-0.959,0.18l-0.84,0.06
		l-1.02,0.091h-0.93l-0.99-0.091h-0.93l-0.959,0.091h-0.33h-0.33h-0.33l-0.329,0.06l-0.33,0.06l-0.42,0.061l-0.33,0.09l-0.39,0.12
		l-0.54,0.21l-0.54,0.06l-0.6,0.061l-0.51-0.061h-0.54l-0.539,0.061l-0.54,0.06l-0.54,0.21l-1.05,0.06h-1.079l-0.989,0.061h-1.08
		h-1.05h-1.02h-1.05h-1.02h-0.989l-1.08,0.09h-0.989h-0.989l-1.02,0.06l-1.05,0.061l-1.02,0.06l-0.99,0.09l-1.26,0.061l-1.289,0.119
		l-1.26,0.21l-1.259,0.21l-1.26,0.181l-1.29,0.149l-1.259,0.12l-1.2,0.149l-0.54,0.061l-0.54-0.061h-0.509l-0.54-0.09l-0.54-0.06
		h-0.479l-0.51,0.06l-0.54,0.21l-1.199,0.15l-1.2,0.06l-1.199,0.061l-1.199,0.06l-1.2,0.15l-1.14,0.119l-1.199,0.21l-1.079,0.33
		l-0.54,0.21l-0.51,0.061h-0.54l-0.54-0.061l-0.54-0.09l-0.6-0.06l-0.539-0.061h-0.511l-0.959,0.271l-0.84,0.18l-0.96,0.21
		l-0.93,0.149l-0.869,0.061l-0.93,0.06l-0.93,0.061l-0.87,0.06h-0.93l-0.869,0.09l-0.93,0.061h-0.87l-0.869,0.12l-0.93,0.09
		l-0.87,0.119l-0.869,0.21H81h-0.69H79.65l-0.66,0.061l-0.6,0.12l-0.659,0.09l-0.69,0.12l-0.659,0.149l-0.061,0.061l-0.06,0.06
		l-0.09,0.12l-0.061,0.09h-1.319l-1.289,0.06l-1.32,0.12l-1.35,0.09l-1.259,0.12l-1.32,0.12l-1.349,0.149l-1.26,0.12l-1.35,0.21
		l-1.319,0.12l-1.26,0.15l-1.35,0.21l-1.319,0.119l-1.35,0.061l-1.319,0.149l-1.35,0.061l-0.54,0.06h-0.6h-0.51l-0.54-0.06h-0.539
		h-0.54l-0.54,0.06l-0.51,0.21l-0.93,0.061h-0.96l-0.93,0.06l-0.93,0.09l-0.93,0.061h-0.93l-0.869,0.06h-0.93l-1.289,0.21
		l-1.199,0.06l-1.26,0.061h-1.2l-1.199,0.06l-1.2,0.15l-1.139,0.27l-1.051,0.39h-0.479l-0.329,0.12l-0.391,0.15l-0.479,0.21
		l-0.479,0.51l-0.84,1.889v1.11l0.18,0.479l0.33,0.33l0.33,0.329l0.359,0.271l0.391,0.27l0.329,0.21l0.39,0.27l0.42,0.181l0.54,0.21
		l0.51,0.06h0.54l0.539-0.12l0.541-0.06l0.539-0.149l0.51-0.121l0.54-0.089l0.39-0.181l0.48-0.149l0.479-0.12l0.391-0.15
		l0.479-0.119l0.45-0.061l0.391-0.06l0.419-0.091l0.39-0.119l0.33-0.15l0.42-0.06l0.39-0.061l0.33-0.06l0.33-0.061l0.329-0.089
		l0.271-0.061l0.87-0.33l0.869-0.149l0.869-0.12l0.871-0.061h0.869l0.869-0.06l0.78-0.15l0.869-0.27l1.14-0.06l1.08-0.12l1.14-0.21
		l1.109-0.15l1.14-0.12l1.079-0.119l1.14-0.15h1.05l1.079-0.27l1.05-0.12l1.02-0.15l1.05-0.119l1.08-0.061l1.079-0.15l1.05-0.119
		l1.079-0.271l0.66-0.06l0.72-0.09h0.689l0.721-0.061l0.659-0.06l0.689-0.061l0.72-0.09l0.66-0.06l0.689-0.12l0.72-0.06l0.66-0.09
		l0.689-0.061h0.72l0.66-0.12l0.6-0.149l0.689-0.181h0.72l0.72-0.09l0.75-0.06l0.72-0.06h0.75l0.72-0.061l0.689-0.09l0.72-0.061
		l0.75-0.06l0.659-0.06l0.72-0.061h0.69l0.72-0.09h0.659h0.75h0.659h1.14l1.199-0.06l1.14-0.061l1.11-0.06l1.14-0.09l1.199-0.12
		l1.14-0.06l1.199-0.061l0.81,0.061h0.811h0.779h0.81h0.72h0.81h0.811l0.779-0.061l0.81-0.09h0.75l0.779-0.06l0.81-0.061l0.81-0.06
		h0.78l0.869-0.09l0.81-0.061h1.08l1.109-0.06l1.08-0.061l1.14-0.149l1.05-0.12l1.139-0.15l1.14-0.06l1.14-0.06l1.26-0.061
		l1.35-0.09l1.319-0.06l1.35-0.12l1.319-0.06l1.35-0.15l1.38-0.061l1.35-0.149l1.319-0.06l1.349-0.061h1.32h1.289h1.319l1.26,0.12
		l1.29,0.09l1.199,0.18l0.12,2.399l-0.061,0.15l-0.149,0.06l-0.061,0.149l-0.06,0.12l-0.12,5.068v0.06l-0.149,0.091l-0.061,0.12
		l-0.15,0.119l-0.119,3.749v0.12l-0.15,0.09l-0.06,0.12l-0.12,0.149v3.329l0.449,1.739l0.211,0.18l0.149,0.33l0.06,0.359l0.061,0.33
		l0.81,1.32l0.18,0.06l0.15,0.09l0.06,0.12l0.12,0.149l1.079,0.511L148.444,146.766z"/>
</g>
<g id="Layer_2">
</g>
</svg>
