<svg xmlns="http://www.w3.org/2000/svg" viewBox="0 0 100 125"><path d="M57.893 66.85c-10.661 1.979-20.345 2.823-30.063.435-6.465-1.589-11.988-4.58-15.321-10.719-.642-1.181-1.642-2.163-2.405-3.285-7.556-11.102-5.892-21.897.161-33.185 3.965-7.394 10.188-9.962 17.454-12.546 11.035-3.924 21.142-2.395 31.462 2.052 11.942 5.146 15.781 15.176 16.55 26.896.307 4.679-.74 9.389-3.603 13.53-2.093 3.029-3.683 6.406-5.565 9.749 4.287 8.565 11.439 14.448 17.803 20.892 6.292 6.37 4.094 3.064 10.692 9.077-.589.783-.872 1.552-1.395 1.787-2.438 1.096-4.941 2.045-7.723 3.169-5.878-6.803-2.037-4.87-8.395-10.839-6.296-5.908-10.634-14.235-19.652-17.013zm6.625-14.363c2.855-6.537 4.47-13.259 3.865-20.508-.587-7.035-3.797-12.524-10.112-15.178-6.489-2.727-13.428-4.824-20.712-2.768-3.901 1.101-7.805 2.2-11.66 3.451-6.575 2.134-11.067 6.514-12.901 13.189-1.997 7.268-3.035 14.69 1.913 21.274 4.649 6.186 10.806 10.139 18.771 10.559 11.535.607 21.995-2.203 30.836-10.019z"/></svg>
